<?xml version="1.0" standalone="no"?>
<!DOCTYPE svg PUBLIC "-//W3C//DTD SVG 1.1//EN" "http://www.w3.org/Graphics/SVG/1.1/DTD/svg11.dtd" >
<svg xmlns="http://www.w3.org/2000/svg" xmlns:xlink="http://www.w3.org/1999/xlink" version="1.1">
<metadata></metadata>
<defs>
<font id="alegreya_sans_scblack" horiz-adv-x="983" >
<font-face units-per-em="2048" ascent="1638" descent="-410" />
<missing-glyph horiz-adv-x="276" />
<glyph unicode="&#xa8;I" horiz-adv-x="669" d="M4 1642q0 78 44 123t122 45q72 0 110.5 -40t38.5 -114q0 -78 -44 -123t-119 -45q-74 0 -113 40t-39 114zM123 0l20 389l-20 936h418l-23 -895l17 -430h-412zM344 1642q0 78 44 123t122 45q72 0 111.5 -40t39.5 -114q0 -78 -44 -123t-119 -45q-76 0 -115 40t-39 114z" />
<glyph unicode="&#xa8;O" horiz-adv-x="1337" d="M35 639q0 340 173 525.5t490 185.5q289 0 447 -171t158 -483q0 -344 -173.5 -532.5t-490.5 -188.5q-289 0 -446.5 173.5t-157.5 490.5zM297 1642q0 86 49 135t133 49q78 0 122 -44t44 -124q0 -86 -48 -136t-132 -50q-82 0 -125 44t-43 126zM465 694q0 -170 18.5 -258 t62.5 -122.5t130 -34.5q80 0 121 27.5t58 98t17 203.5q0 168 -18 256t-62 123t-130 35q-80 0 -121 -27.5t-58.5 -97.5t-17.5 -203zM692 1642q0 86 49.5 135t133.5 49q77 0 121 -44t44 -124q0 -86 -48 -136t-132 -50q-82 0 -125 44t-43 126z" />
<glyph unicode="&#xb4;Y" horiz-adv-x="1216" d="M-16 1325h430l32 -111l150 -399h25l172 385l47 125h417l-471 -899l-4 -78l17 -348h-410l21 348l-2 64zM344 1628q242 123 460 252l35 -9l101 -239l-13 -33q-270 -86 -487 -141l-35 8z" />
<glyph unicode="&#xa8;i" horiz-adv-x="620" d="M-59 1368q0 86 49 135t133 49q78 0 122 -44t44 -124q0 -86 -48 -136t-132 -50q-82 0 -125 44t-43 126zM109 0l18 305l-18 746h387l-23 -707l16 -344h-380zM336 1368q0 86 49 135t133 49q78 0 122 -44t44 -124q0 -86 -48 -136t-132 -50q-82 0 -125 44t-43 126z" />
<glyph unicode="&#xa8;o" horiz-adv-x="1157" d="M37 504q0 270 148.5 418.5t418.5 148.5q246 0 380 -135t134 -383q0 -274 -148.5 -425t-418.5 -151q-246 0 -380 138.5t-134 388.5zM209 1368q0 86 49 135t133 49q78 0 122 -44t44 -124q0 -86 -48 -136t-132 -50q-82 0 -125 44t-43 126zM434 555q0 -129 12.5 -190.5 t43 -84t96.5 -22.5q59 0 86.5 15.5t38 59.5t10.5 138q0 131 -11.5 192.5t-43 84t-97.5 22.5q-57 0 -84.5 -15.5t-39 -60.5t-11.5 -139zM604 1368q0 86 49 135t133 49q78 0 122 -44t44 -124q0 -86 -48 -136t-132 -50q-82 0 -125 44t-43 126z" />
<glyph unicode="&#xb4;y" horiz-adv-x="1075" d="M-6 1051h397l29 -97l106 -272h21l125 258l41 111h387l-402 -738l-2 -45l17 -268h-379l18 268l-2 35zM297 1300q209 156 412 330l34 -2l142 -219l-6 -35q-291 -147 -457 -223l-35 2z" />
<glyph horiz-adv-x="0" />
<glyph unicode="&#xd;" horiz-adv-x="276" />
<glyph unicode=" "  horiz-adv-x="276" />
<glyph unicode="&#x09;" horiz-adv-x="276" />
<glyph unicode="&#xa0;" horiz-adv-x="276" />
<glyph unicode="!" horiz-adv-x="489" d="M55 156q0 88 51.5 140t137.5 52q82 0 127 -46t45 -130q0 -88 -50.5 -139t-136.5 -51q-84 0 -129 45t-45 129zM82 1006l33 43l282 16l45 -43l-75 -584l-222 -30l-36 34z" />
<glyph unicode="&#x22;" horiz-adv-x="907" d="M109 1032l309 19l20 -25l-98 -537l-180 -28l-31 22zM504 1032l309 19l21 -25l-99 -537l-180 -28l-31 22z" />
<glyph unicode="#" horiz-adv-x="1202" d="M41 326l16 198h187l28 185h-147l-23 24l17 199h188l39 239h221l25 -26l-35 -213h186l39 239h222l24 -26l-35 -213h146l22 -25l-16 -198h-187l-28 -185h147l23 -24l-17 -199h-190l-37 -238h-227l-19 25l35 213h-188l-37 -238h-227l-19 25l35 213h-146zM494 524h186l29 185 h-187z" />
<glyph unicode="$" horiz-adv-x="960" d="M49 33l55 329l35 27q80 -63 174.5 -104t155.5 -41q49 0 49 32q0 25 -27.5 40.5t-97.5 41.5q-92 33 -155.5 68t-110.5 101.5t-47 168.5q0 127 78 222.5t219 132.5l14 274h230l34 -31l-12 -227q115 -10 231 -51l-55 -316l-53 -14q-72 47 -148.5 76t-119.5 29t-43 -27 t29.5 -43t99.5 -43q92 -33 154.5 -66.5t108.5 -98t46 -165.5q0 -123 -76 -221t-231 -135l-17 -283h-235l-29 31l14 240q-137 14 -270 53z" />
<glyph unicode="%" horiz-adv-x="1820" d="M41 938q0 195 95 299t270 104q155 0 238 -94t83 -272q0 -193 -93 -296.5t-267 -103.5q-158 0 -242 94.5t-84 268.5zM276 956q0 -84 24 -119.5t83 -35.5q61 0 86 33.5t25 109.5q0 82 -26 117t-87 35q-57 0 -81 -31t-24 -109zM313 -55l951 1476l155 -96l21 -49l-946 -1469 l-168 103zM1092 348q0 195 95 299.5t269 104.5q156 0 239 -94.5t83 -272.5q0 -193 -93.5 -296t-267.5 -103q-158 0 -241.5 94t-83.5 268zM1327 367q0 -84 23.5 -120t83.5 -36q61 0 85.5 34t24.5 109q0 82 -25.5 117t-86.5 35q-58 0 -81.5 -31t-23.5 -108z" />
<glyph unicode="&#x26;" horiz-adv-x="1392" d="M33 520q0 254 132 402.5t367 148.5q139 0 211 -50t78 -138q164 131 287 277.5t190 297.5h31q115 -106 154 -246q-39 -106 -204 -271t-399.5 -332t-463.5 -279q61 -82 200 -82q131 0 202 73.5t91 229.5l27 20h473l23 -28l-25 -246h-299q-66 -166 -194 -245t-322 -79 q-268 0 -413.5 142.5t-145.5 404.5zM362 600q76 35 175 90q47 31 47 82q0 53 -64 53q-71 0 -111 -58t-47 -167z" />
<glyph unicode="'" horiz-adv-x="512" d="M109 1032l309 19l20 -25l-98 -537l-180 -28l-31 22z" />
<glyph unicode="(" horiz-adv-x="618" d="M115 512q0 307 78.5 510t244.5 328h35l141 -117v-31q-92 -102 -136 -269t-44 -419q0 -231 44 -388t136 -259v-31l-141 -117h-35q-166 123 -244.5 315.5t-78.5 477.5z" />
<glyph unicode=")" horiz-adv-x="602" d="M-18 -133q92 102 136 269t44 419q0 231 -44 388t-136 259v31l141 117h35q166 -123 244.5 -315.5t78.5 -477.5q0 -307 -78.5 -510t-244.5 -328h-35l-141 117v31z" />
<glyph unicode="*" horiz-adv-x="806" d="M33 1186q-2 90 26 198l25 7l223 -152l-18 -104l-23 -11zM63 901l3 25l213 166l94 -50l4 -22l-131 -205q-78 23 -183 86zM319 1503q88 31 199 35l10 -20l-73 -261l-105 -12l-18 17zM412 1022l75 72l25 -2l154 -191q-49 -68 -142 -143l-20 8zM473 1219l10 22l230 86 q55 -80 92 -178l-14 -16l-271 -9z" />
<glyph unicode="+" d="M31 416l18 239h311v312l240 18l27 -24v-306h303l24 -26l-18 -240h-309v-311l-240 -19l-27 25v305h-305z" />
<glyph unicode="," horiz-adv-x="466" d="M-12 -154q59 51 86.5 105.5t27.5 118.5q0 86 -67 153l2 33q147 82 293 119q51 -47 74.5 -100.5t23.5 -116.5q0 -119 -76 -228.5t-235 -220.5l-125 109z" />
<glyph unicode="-" horiz-adv-x="612" d="M51 373v245l479 78l29 -28l2 -246l-481 -78z" />
<glyph unicode="." horiz-adv-x="466" d="M33 176q0 98 56 155.5t153 57.5q90 0 140 -51t50 -143q0 -98 -55 -155.5t-152 -57.5q-94 0 -143 50t-49 144z" />
<glyph unicode="/" horiz-adv-x="573" d="M-57 -211l426 1610h268l31 -33l-426 -1608h-277z" />
<glyph unicode="0" horiz-adv-x="1050" d="M59 498q0 270 130 422.5t364 152.5q207 0 322.5 -136t115.5 -384q0 -274 -129 -426t-360 -152q-209 0 -326 137.5t-117 385.5zM369 524q0 -106 34.5 -152t120.5 -46t123 42t37 138q0 106 -38 150t-124 44q-84 0 -118.5 -38.5t-34.5 -137.5z" />
<glyph unicode="1" horiz-adv-x="776" d="M10 590v323l553 156l58 -41l-21 -598l16 -430h-405l16 389v223l-192 -41z" />
<glyph unicode="2" horiz-adv-x="1003" d="M53 940q254 129 467 129q164 0 268.5 -72.5t104.5 -203.5q0 -84 -50 -177.5t-169 -212.5l-90 -90l6 -10h158l198 21l21 -25l-45 -315l-295 16h-471l-74 -6l-19 14v242l263 225q84 76 126 125t42 84q0 47 -72 47q-55 0 -125 -27.5t-133 -74.5h-43z" />
<glyph unicode="3" horiz-adv-x="927" d="M31 961q96 53 204.5 82.5t213.5 29.5q184 0 296.5 -84t112.5 -221q0 -76 -41 -152.5t-141 -134.5v-12q98 -35 145 -102.5t47 -173.5q0 -113 -71.5 -200t-200.5 -135t-299 -48q-125 0 -242 22l-20 295l26 25q141 -41 248 -41q88 0 131 23.5t43 72.5q0 68 -94 67h-172 l-16 25l10 274l92 5q63 4 104.5 30.5t41.5 73.5q0 35 -23 51.5t-72 16.5q-47 0 -100 -16.5t-125 -49.5h-41z" />
<glyph unicode="4" horiz-adv-x="1083" d="M31 90v252l483 711h369l-9 -682h142l22 -35l-16 -279l-139 4l12 -211l-21 -26l-313 -19l-20 25l8 236h-264l-230 -9zM369 371h188l-2 243h-23z" />
<glyph unicode="5" horiz-adv-x="917" d="M8 121l27 26q131 -39 262 -38q84 0 130 26.5t46 77.5q0 41 -28.5 64.5t-92.5 33.5l-223 37l-23 29l11 643l39 41l129 -8h329l240 16l23 -25l-43 -303l-27 -28l-227 30h-162l-4 -125l123 -26q164 -35 240.5 -116t76.5 -218q0 -135 -70.5 -237.5t-197.5 -159t-295 -56.5 q-129 0 -264 29z" />
<glyph unicode="6" horiz-adv-x="1019" d="M37 451q0 236 152.5 437.5t431.5 336.5h18l254 -176v-39q-174 -70 -271.5 -126.5t-146.5 -123.5l8 -10q72 20 138 20q112 0 192 -52t122 -137t42 -182q0 -106 -52.5 -203.5t-160 -159t-262.5 -61.5q-217 0 -341 128t-124 348zM399 457q0 -121 20.5 -173.5t92.5 -52.5 q104 0 104 129q0 68 -27.5 101t-88.5 33q-45 0 -101 -19v-18z" />
<glyph unicode="7" horiz-adv-x="921" d="M16 729l25 334l285 -10h430l116 4v-291l-268 -584l-143 -381l-320 88l-24 62l368 772h-223l-227 -25z" />
<glyph unicode="8" horiz-adv-x="1054" d="M68 289q0 96 52 159.5t159 108.5v16q-180 98 -181 285q0 170 125 268.5t336 98.5q184 0 288.5 -85t104.5 -229q0 -156 -164 -262v-16q90 -47 141.5 -112.5t51.5 -164.5q0 -178 -132 -279.5t-353 -101.5q-207 0 -317.5 87.5t-110.5 226.5zM395 346q0 -51 34 -79.5 t99 -28.5q63 0 96 25.5t33 62.5q0 45 -39.5 74.5t-119.5 60.5q-56 -21 -79.5 -46.5t-23.5 -68.5zM422 872q0 -45 38 -75.5t109 -59.5q72 61 72 127q0 41 -29.5 65.5t-81.5 24.5q-55 0 -81.5 -21.5t-26.5 -60.5z" />
<glyph unicode="9" horiz-adv-x="1019" d="M43 652q0 106 52.5 203.5t160 159t262.5 61.5q217 0 341 -128t124 -348q0 -236 -152.5 -437.5t-431.5 -336.5h-18l-254 176v39q174 70 271.5 126.5t146.5 123.5l-8 10q-72 -20 -138 -20q-112 0 -192 52t-122 137t-42 182zM404 691q0 -68 27.5 -101t88.5 -33q45 0 101 19 v18q0 121 -20.5 173.5t-92.5 52.5q-104 0 -104 -129z" />
<glyph unicode=":" horiz-adv-x="466" d="M23 176q0 98 56 155.5t153 57.5q90 0 140 -51t50 -143q0 -98 -55 -155.5t-152 -57.5q-94 0 -143 50t-49 144zM23 698q0 98 56 155.5t153 57.5q90 0 140 -51t50 -143q0 -98 -55 -155.5t-152 -57.5q-94 0 -143 50t-49 144z" />
<glyph unicode=";" horiz-adv-x="466" d="M-22 -154q59 51 86.5 105.5t27.5 118.5q0 86 -67 153l2 33q147 82 293 119q51 -47 74.5 -100.5t23.5 -116.5q0 -119 -76 -228.5t-235 -220.5l-125 109zM23 698q0 98 56 155.5t153 57.5q90 0 140 -51t50 -143q0 -98 -55 -155.5t-152 -57.5q-94 0 -143 50t-49 144z" />
<glyph unicode="&#x3c;" d="M63 362v320l25 35l748 266l82 -227l-15 -27l-567 -188v-19l565 -186l-53 -221l-33 -27z" />
<glyph unicode="=" d="M31 197l18 239h881l24 -26l-18 -240h-881zM31 633l18 239h881l24 -26l-18 -240h-881z" />
<glyph unicode="&#x3e;" d="M66 756l81 227l748 -266l25 -35v-320l-752 -274l-33 27l-53 221l565 186v19l-567 188z" />
<glyph unicode="?" horiz-adv-x="610" d="M10 846l72 211l31 18q258 -6 396 -76.5t138 -199.5q0 -74 -46 -139.5t-128 -96.5l-88 -33l-6 -10l6 -84l-238 -37l-28 27l-21 186l11 25l112 39q74 27 74 69q0 31 -51 44.5t-205 19.5zM76 154q0 88 49 139t137 51q82 0 127 -45t45 -127q0 -88 -50 -139t-138 -51 q-82 0 -126 44t-44 128z" />
<glyph unicode="@" horiz-adv-x="1773" d="M39 375q0 272 121 495.5t340 351.5t506 128q223 0 392 -81t262 -234.5t93 -364.5q0 -322 -223 -494t-637 -172l29 211h-31q-70 -135 -143 -225h-46q-152 37 -209 116.5t-57 208.5q0 123 50.5 245t156 222.5t258.5 151.5h12l189 -31l211 43l22 -16l-88 -658 q115 29 182.5 134.5t67.5 250.5q0 207 -136 328t-368 121q-207 0 -364.5 -89t-243.5 -245t-86 -354q0 -207 96.5 -356.5t271.5 -227.5t406 -78l14 -35l-102 -182q-287 0 -500 96.5t-329.5 285t-116.5 454.5zM756 459q0 -152 41 -152q28 0 70 72t106 227l6 43l-131 33 q-92 0 -92 -223z" />
<glyph unicode="A" horiz-adv-x="1284" d="M4 0l402 1325h495l363 -1325h-416l-37 219l-2 6l-201 4l-168 -8l-34 -221h-402zM518 524l115 -2l115 2l-91 434h-24z" />
<glyph unicode="B" horiz-adv-x="1288" d="M123 0l20 389l-20 936l592 2q225 0 352 -87t127 -253q0 -102 -52 -181t-151 -124q129 -37 187.5 -109.5t58.5 -189.5q0 -207 -169 -302t-505 -95q-186 0 -440 14zM504 430l6 -166q102 -8 131 -8q84 0 132 37t48 106q0 47 -27.5 76t-88.5 49l-199 -4zM512 784l154 -6 q57 18 83.5 53t26.5 97q0 71 -50 99t-187 28h-19z" />
<glyph unicode="C" horiz-adv-x="1052" d="M35 651q0 332 179 514.5t507 182.5q176 -1 332 -56l-70 -325l-27 -17q-53 29 -122.5 46.5t-128.5 17.5q-125 0 -180.5 -73t-55.5 -243q0 -199 63.5 -290t198.5 -91q57 0 128 11.5t124 31.5l33 -20l-33 -324q-123 -39 -285 -39q-330 0 -496.5 172.5t-166.5 501.5z" />
<glyph unicode="D" horiz-adv-x="1361" d="M123 0l20 389l-20 936l598 8q293 0 449.5 -158.5t156.5 -457.5q0 -354 -182 -544.5t-522 -190.5q-213 0 -500 18zM518 430l4 -127q123 -16 178 -16q97 0 147 76.5t50 252.5q0 150 -20.5 236t-65.5 124t-125 38q-78 0 -154 -8z" />
<glyph unicode="E" horiz-adv-x="1107" d="M123 0l20 389l-20 936h950l23 -29l-27 -299l-326 13h-211l-4 -187h203l213 6l23 -28l-25 -299l-237 6h-185l-2 -78l4 -115h197l340 13l22 -29l-24 -299h-934z" />
<glyph unicode="F" horiz-adv-x="985" d="M123 0l20 389l-20 936h885l22 -29l-26 -299l-328 13h-144l-6 -238h140l237 6l23 -28l-25 -299l-264 6h-119v-27l17 -430h-412z" />
<glyph unicode="G" horiz-adv-x="1220" d="M35 635q0 348 193.5 530.5t553.5 182.5q221 -1 383 -62l-88 -362h-33q-102 51 -176.5 73.5t-162.5 22.5q-94 0 -144.5 -31t-73 -108.5t-22.5 -225.5q0 -150 22.5 -228.5t76.5 -110t157 -31.5q29 0 74 8v65l-7 224l375 26l-6 -180v-362q-238 -90 -473 -91 q-322 0 -485.5 171t-163.5 489z" />
<glyph unicode="H" horiz-adv-x="1456" d="M141 0l21 389l-21 936h418l-12 -502l207 -4l188 4l-10 502h418l-23 -895l16 -430h-411l20 389l-2 103l-221 4l-190 -7l-2 -59l16 -430h-412z" />
<glyph unicode="I" horiz-adv-x="669" d="M123 0l20 389l-20 936h418l-23 -895l17 -430h-412z" />
<glyph unicode="J" horiz-adv-x="741" d="M14 1057l17 268h592l-23 -889l4 -182q0 -129 -43 -217t-142.5 -151.5t-275.5 -114.5l-106 211v32q104 51 146 106.5t42 145.5v129l-14 641l-174 -6z" />
<glyph unicode="K" horiz-adv-x="1286" d="M123 0l20 389l-20 936h418l-15 -553l254 410l70 143h434l-389 -627q188 -295 430 -612l-6 -45q-215 -47 -410 -66l-45 25q-209 358 -342 608l-4 -178l17 -430h-412z" />
<glyph unicode="L" horiz-adv-x="925" d="M113 0l20 389l-20 936h417l-22 -895l4 -94h391l23 -29l-25 -307h-788z" />
<glyph unicode="M" horiz-adv-x="1650" d="M53 0l129 1325h473l39 -188l117 -482h25l129 467l47 203h467l106 -1325h-360l-11 401l-22 334h-25l-213 -610h-309l-176 610h-25l-28 -295l-21 -440h-342z" />
<glyph unicode="N" horiz-adv-x="1454" d="M123 0l20 389l-20 936h446l373 -709h25l-13 695l377 22l-22 -901l16 -432h-446l-373 709h-25l-2 -230l17 -479h-373z" />
<glyph unicode="O" horiz-adv-x="1337" d="M35 639q0 340 173 525.5t490 185.5q289 0 447 -171t158 -483q0 -344 -173.5 -532.5t-490.5 -188.5q-289 0 -446.5 173.5t-157.5 490.5zM465 694q0 -170 18.5 -258t62.5 -122.5t130 -34.5q80 0 121 27.5t58 98t17 203.5q0 168 -18 256t-62 123t-130 35q-80 0 -121 -27.5 t-58.5 -97.5t-17.5 -203z" />
<glyph unicode="P" horiz-adv-x="1214" d="M123 0l20 389l-20 936l629 2q223 0 342.5 -109.5t119.5 -312.5q0 -158 -73.5 -277.5t-208.5 -186t-311 -66.5h-101l15 -375h-412zM524 670l154 -8q55 30 80.5 78t25.5 124q0 90 -43 132t-135 46l-74 -6z" />
<glyph unicode="Q" horiz-adv-x="1353" d="M35 639q0 340 173 525.5t490 185.5q289 0 447 -171t158 -483q0 -215 -70 -371.5t-203 -244.5q240 -125 471 -203l17 -37q-80 -158 -197 -260l-29 -14q-352 178 -620 409h-33q-289 0 -446.5 173.5t-157.5 490.5zM465 694q0 -170 18.5 -258t62.5 -122.5t130 -34.5 q80 0 121 27.5t58 98t17 203.5q0 168 -18 256t-62 123t-130 35q-80 0 -121 -27.5t-58.5 -97.5t-17.5 -203z" />
<glyph unicode="R" horiz-adv-x="1292" d="M123 0l20 389l-20 936l629 2q223 0 344 -105.5t121 -303.5q0 -117 -58.5 -219.5t-163.5 -176.5q148 -229 295 -426l-6 -45q-209 -63 -412 -76l-38 33l-25 51q-16 33 -65.5 138.5t-86.5 197.5h-137l15 -395h-412zM524 694l150 -8q57 27 83.5 72t26.5 119q0 81 -42 121 t-136 44l-74 -6z" />
<glyph unicode="S" horiz-adv-x="1081" d="M37 53l59 357l41 24q94 -72 201.5 -113.5t179.5 -41.5q57 0 83 19t26 48q0 43 -44 73t-143 73q-113 49 -185.5 93t-125.5 120.5t-53 189.5q0 129 69.5 232.5t194.5 163t285 59.5q195 0 385 -72l-66 -334l-57 -24q-86 53 -170 83.5t-135 30.5q-47 0 -75 -18.5t-28 -48.5 q0 -39 42 -67t141 -73q115 -51 188.5 -95t128.5 -120.5t55 -189.5q0 -125 -68.5 -226.5t-195.5 -161t-295 -59.5q-209 0 -438 78z" />
<glyph unicode="T" horiz-adv-x="1062" d="M16 1026l23 299h989l23 -29l-23 -299l-270 13h-25l-10 -580l16 -430h-409l20 389l-10 621h-27l-272 -13z" />
<glyph unicode="U" horiz-adv-x="1337" d="M94 1325h412l-19 -827v-9q0 -97 40 -143q42 -48 137 -47q96 0 139 47q41 45 41 143v9l-19 827h418l-14 -672l-2 -211q-2 -225 -151.5 -346t-428.5 -121q-269 0 -411 121q-137 116 -136 328v18l6 211z" />
<glyph unicode="V" horiz-adv-x="1259" d="M8 1325h416l37 -219l153 -739h25l188 714l39 244h402l-402 -1325h-495z" />
<glyph unicode="W" horiz-adv-x="1871" d="M35 1325h397l21 -205l129 -708h24l154 604l-70 309h414l29 -246l139 -667h24l162 684l37 229h377l-391 -1325h-434l-125 479h-25l-115 -479h-436z" />
<glyph unicode="X" horiz-adv-x="1349" d="M14 1325h492l72 -166l116 -209l133 232l62 143h428l-379 -625l399 -700h-489l-70 162l-119 215l-151 -236l-66 -141h-415l393 637z" />
<glyph unicode="Y" horiz-adv-x="1216" d="M-16 1325h430l32 -111l150 -399h25l172 385l47 125h417l-471 -899l-4 -78l17 -348h-410l21 348l-2 64z" />
<glyph unicode="Z" horiz-adv-x="1167" d="M49 1018l29 313l307 -6h561l156 2v-295l-563 -729h329l252 19l13 -19l-33 -313l-365 10h-471l-207 -12v293l574 741h-322l-246 -21z" />
<glyph unicode="[" horiz-adv-x="618" d="M121 -231l22 770l-22 770l502 20l14 -18v-176l-193 -31v-1131l193 -30v-176l-14 -19z" />
<glyph unicode="\" horiz-adv-x="573" d="M-57 1366l30 33h269l426 -1610l-23 -31h-276z" />
<glyph unicode="]" horiz-adv-x="618" d="M-18 -57l192 30v1131l-192 31v176l14 18l502 -20l-23 -770l23 -770l-502 -21l-14 19v176z" />
<glyph unicode="^" horiz-adv-x="942" d="M25 309l266 697l35 22h319l275 -698l-27 -33l-221 -53l-187 514h-18l-188 -516l-27 -15z" />
<glyph unicode="_" horiz-adv-x="897" d="M-31 -406l19 220h915l25 -27l-19 -219h-915z" />
<glyph unicode="`" horiz-adv-x="794" d="M105 1325l141 219l35 2q203 -173 412 -329l-91 -148l-34 -2q-166 76 -457 223z" />
<glyph unicode="a" horiz-adv-x="1124" d="M14 0l326 1051h459l295 -1051h-385l-23 145l-156 5l-122 -7l-23 -143h-371zM473 422l80 -2l80 2l-60 293h-22z" />
<glyph unicode="b" horiz-adv-x="1142" d="M109 0l18 305l-18 746h530q197 0 306.5 -70t109.5 -205q0 -76 -43 -137t-125 -100q104 -31 150 -87.5t46 -146.5q0 -166 -145 -241.5t-438 -75.5q-133 0 -391 12zM467 344l4 -98q61 -6 102 -6q56 0 87.5 20.5t31.5 61.5q0 23 -16.5 39t-54.5 32l-152 -4zM475 635l111 -6 q41 14 58.5 33.5t17.5 56.5q0 33 -15.5 49t-52.5 22.5t-115 6.5z" />
<glyph unicode="c" horiz-adv-x="915" d="M37 514q0 264 153.5 409.5t436.5 145.5q145 0 276 -33l-63 -301l-25 -16q-41 18 -98.5 30.5t-104.5 12.5q-94 0 -134 -45t-40 -158q0 -141 48.5 -203.5t152.5 -62.5q43 0 100.5 6t98.5 14l30 -18l-30 -299q-92 -16 -230 -16q-287 0 -429 136t-142 398z" />
<glyph unicode="d" horiz-adv-x="1177" d="M109 0l18 305l-18 746l520 6q248 0 380 -126t132 -362q0 -283 -156 -434t-446 -151q-147 0 -430 16zM473 344l2 -63q98 -16 135 -17q66 0 99.5 47t33.5 164q0 113 -13 174.5t-45 87t-89 25.5q-43 0 -111 -6z" />
<glyph unicode="e" d="M109 0l18 305l-18 746h827l20 -27l-22 -276l-277 12h-172l-2 -90h164l178 6l21 -27l-23 -276l-200 6h-148l-2 -35l2 -53h162l287 10l20 -25l-22 -276h-813z" />
<glyph unicode="f" horiz-adv-x="870" d="M100 0l19 305l-19 746h770l21 -27l-25 -276l-278 12h-111l-4 -135h107l202 6l21 -27l-23 -276l-227 6h-88l16 -334h-381z" />
<glyph unicode="g" horiz-adv-x="1052" d="M37 500q0 279 166 424t475 145q194 0 323 -41l-81 -334h-29q-88 39 -149.5 56.5t-135.5 17.5q-72 0 -107.5 -17.5t-50 -69.5t-14.5 -161q0 -111 16.5 -165t56.5 -73.5t122 -19.5q10 0 18 1t12 -1v27l-4 186l346 23l-6 -144v-301q-201 -76 -401 -76q-276 0 -416.5 135.5 t-140.5 387.5z" />
<glyph unicode="h" horiz-adv-x="1257" d="M109 0l18 305l-18 746h387l-13 -379l154 -4l137 4l-10 379h387l-21 -707l15 -344h-381l18 305l-2 60l-164 4l-143 -4v-21l16 -344h-380z" />
<glyph unicode="i" horiz-adv-x="620" d="M109 0l18 305l-18 746h387l-23 -707l16 -344h-380z" />
<glyph unicode="j" horiz-adv-x="708" d="M27 791l22 260h535l-19 -707l4 -141q0 -104 -37.5 -176t-125 -126.5t-240.5 -103.5l-105 191v28q88 35 122 76t34 109v106l-10 465l-160 -4z" />
<glyph unicode="k" horiz-adv-x="1138" d="M109 0l18 305l-18 746h387l-15 -422l185 301l57 121h399l-307 -498q154 -235 342 -473l-6 -41q-199 -45 -379 -59l-43 22q-143 254 -252 459l-4 -117l16 -344h-380z" />
<glyph unicode="l" horiz-adv-x="823" d="M98 0l19 305l-19 746h387l-22 -707l2 -35h317l21 -24l-23 -285h-682z" />
<glyph unicode="m" horiz-adv-x="1415" d="M49 0l105 1051h450l27 -148l65 -311h23l76 295l36 164h441l86 -1051h-342l-2 317l-13 181h-20l-152 -408h-288l-117 408h-23l-16 -144l-12 -354h-324z" />
<glyph unicode="n" horiz-adv-x="1257" d="M109 0l18 307l-18 744h413l271 -484h22l-12 469l348 21l-21 -705l15 -352h-414l-270 483h-21l-2 -94l15 -389h-344z" />
<glyph unicode="o" horiz-adv-x="1157" d="M37 504q0 270 148.5 418.5t418.5 148.5q246 0 380 -135t134 -383q0 -274 -148.5 -425t-418.5 -151q-246 0 -380 138.5t-134 388.5zM434 555q0 -129 12.5 -190.5t43 -84t96.5 -22.5q59 0 86.5 15.5t38 59.5t10.5 138q0 131 -11.5 192.5t-43 84t-97.5 22.5 q-57 0 -84.5 -15.5t-39 -60.5t-11.5 -139z" />
<glyph unicode="p" horiz-adv-x="1077" d="M109 0l18 305l-18 746h561q190 0 293.5 -89.5t103.5 -252.5q0 -127 -64.5 -225.5t-181 -153t-268.5 -54.5h-76l12 -276h-380zM479 547l121 -8q37 28 52.5 57t15.5 76q0 61 -32 87.5t-104 31.5l-45 -5z" />
<glyph unicode="q" horiz-adv-x="1171" d="M37 504q0 270 148.5 418.5t418.5 148.5q246 0 380 -135t134 -383q0 -164 -54 -285t-159 -194q154 -72 350 -140l15 -32q-45 -78 -83 -131.5t-91 -102.5l-27 -4q-268 154 -459 316q-18 -2 -59 -3q-246 0 -380 138.5t-134 388.5zM434 555q0 -129 12.5 -190.5t43 -84 t96.5 -22.5q59 0 86.5 15.5t38 59.5t10.5 138q0 131 -11.5 192.5t-43 84t-97.5 22.5q-57 0 -84.5 -15.5t-39 -60.5t-11.5 -139z" />
<glyph unicode="r" horiz-adv-x="1140" d="M109 0l18 305l-18 746h561q190 0 294.5 -85t104.5 -245q0 -90 -46 -171t-130 -142q147 -209 237 -320l-6 -41q-190 -55 -370 -67l-52 38q-86 186 -124 273h-103l14 -291h-380zM479 565l113 -8q41 20 58.5 49t17.5 76q0 55 -31 79.5t-105 29.5l-45 -5z" />
<glyph unicode="s" horiz-adv-x="960" d="M49 33l55 329l35 27q80 -63 174.5 -104t155.5 -41q49 0 49 32q0 25 -27.5 40.5t-97.5 41.5q-92 33 -155.5 68t-110.5 101.5t-47 168.5q0 106 55 191.5t161.5 134.5t254.5 49q165 0 323 -55l-55 -316l-53 -14q-72 47 -148.5 76t-119.5 29t-43 -27t29.5 -43t99.5 -43 q92 -33 154.5 -66.5t108.5 -98t46 -165.5q0 -98 -48 -182t-154.5 -137.5t-270.5 -53.5q-184 0 -371 58z" />
<glyph unicode="t" horiz-adv-x="935" d="M25 774l20 277h844l20 -27l-20 -276l-232 12h-6l-8 -416l14 -344h-378l18 305l-8 455h-8l-234 -12z" />
<glyph unicode="u" horiz-adv-x="1159" d="M86 1051h379l-16 -654v-8q1 -59 27 -85q28 -28 99 -28q72 0 102 28q28 26 28 85v8l-17 654h385l-12 -533l-2 -172q-2 -178 -131 -273.5t-369 -95.5q-231 -1 -352 95q-115 91 -115 257v17l4 170z" />
<glyph unicode="v" horiz-adv-x="1105" d="M18 1051h383l33 -195l105 -522h22l133 500l33 217h371l-326 -1051h-461z" />
<glyph unicode="w" horiz-adv-x="1597" d="M43 1051h375l16 -183l74 -483h22l105 428l-51 238h391l24 -224l84 -442h23l100 461l33 205h354l-313 -1051h-412l-80 307h-22l-70 -307h-411z" />
<glyph unicode="x" horiz-adv-x="1136" d="M-2 1051h455l61 -146l76 -119l90 142l53 123h393l-311 -494l328 -557h-453l-59 141l-74 117l-104 -137l-58 -121h-383l324 498z" />
<glyph unicode="y" horiz-adv-x="1075" d="M-6 1051h397l29 -97l106 -272h21l125 258l41 111h387l-402 -738l-2 -45l17 -268h-379l18 268l-2 35z" />
<glyph unicode="z" horiz-adv-x="1021" d="M49 766l27 289l274 -4h604v-271l-444 -501h240l221 16l10 -14l-29 -291l-327 10h-379l-185 -10v268l453 512h-233l-220 -18z" />
<glyph unicode="{" horiz-adv-x="618" d="M53 479v178q113 47 113 144q0 41 -19 119q-10 41 -18 87t-8 89q0 121 84 187.5t241 66.5q84 0 164 -25l15 -27l-31 -196q-37 10 -68 10q-45 0 -69.5 -25.5t-24.5 -72.5q0 -41 27 -109q10 -29 18 -61.5t8 -57.5q0 -68 -36.5 -123t-106.5 -88v-14q70 -33 106.5 -88 t36.5 -119q0 -47 -28 -125q-10 -27 -17.5 -55.5t-7.5 -50.5q0 -47 24.5 -72.5t69.5 -25.5q31 0 68 10l31 -197l-15 -26q-80 -25 -164 -25q-158 0 -241.5 66.5t-83.5 187.5q0 43 8 89t18 87q18 78 19 119q0 96 -113 143z" />
<glyph unicode="|" horiz-adv-x="614" d="M154 -492l2 1063l2 1065l276 23l29 -27l-10 -1030l2 -1104l-271 -22z" />
<glyph unicode="}" horiz-adv-x="618" d="M-6 -162l31 197q37 -10 67 -10q45 0 69.5 25.5t24.5 72.5q0 41 -26 108q-10 29 -18.5 62t-8.5 57q0 68 37 123t106 88v14q-70 33 -106.5 88.5t-36.5 118.5q0 47 29 125q10 27 17 55.5t7 51.5q0 47 -24.5 72.5t-69.5 25.5q-31 0 -67 -10l-31 196l14 27q80 25 164 25 q158 0 242 -66.5t84 -187.5q0 -43 -8.5 -89t-18.5 -87q-18 -78 -18 -119q0 -96 112 -144v-178q-113 -47 -112 -143q0 -41 18 -119q10 -41 18.5 -87t8.5 -89q0 -121 -84 -187.5t-242 -66.5q-84 0 -164 25z" />
<glyph unicode="~" d="M12 438v33l189 236l32 14q66 -12 220 -59q18 -6 104 -32t121 -26q31 0 60.5 24.5t58 56.5t39.5 44h32l103 -129v-33l-187 -235l-32 -13q-61 8 -236 64q-66 20 -125 35.5t-82 15.5q-33 0 -63.5 -25.5t-58 -57.5t-37.5 -42h-33z" />
<glyph unicode="&#xa1;" horiz-adv-x="489" d="M47 25l76 583l221 31l37 -35l27 -563l-33 -43l-283 -16zM74 874q0 88 50 139.5t136 51.5q84 0 129 -45t45 -129q0 -88 -51 -140.5t-137 -52.5q-82 0 -127 46.5t-45 129.5z" />
<glyph unicode="&#xa2;" horiz-adv-x="782" d="M29 547q0 197 83 324.5t236 175.5l14 309h269l39 -33l-15 -262q78 -16 127 -39l-63 -303l-29 -14q-55 23 -90 33t-65 10q-63 0 -94 -38t-31 -120q0 -117 35.5 -170t113.5 -53q63 -1 174 30l27 -22l-41 -293q-74 -16 -113 -21l-16 -325h-277l-28 31l16 313 q-133 45 -202.5 163.5t-69.5 303.5z" />
<glyph unicode="&#xa3;" horiz-adv-x="985" d="M23 18l16 222q82 20 115.5 64t33.5 122v84h-153l-12 18l16 195h145v80q-2 201 130 310.5t378 109.5q129 0 250 -27l-22 -276l-25 -17q-145 66 -240 66q-61 0 -89.5 -24.5t-28.5 -78.5l-2 -143h280l10 -18l-14 -195h-281v-4q0 -84 -16 -131t-68 -105v-10h261l227 16 l10 -16l-26 -270l-322 10h-561z" />
<glyph unicode="&#xa4;" horiz-adv-x="888" d="M-4 981l172 182l33 -2l123 -145q72 33 147 33q68 0 133 -27l117 147l35 7l182 -172v-33l-147 -125q35 -74 34 -152q0 -66 -26 -133l147 -112l6 -35l-172 -183h-32l-121 146q-70 -37 -156 -37q-70 0 -137 29l-111 -144l-35 -6l-182 172l2 33l144 121q-35 70 -35 149 q0 72 28 140l-143 112zM324 694q0 -70 38.5 -108.5t108.5 -38.5t108.5 39t38.5 108q0 70 -38.5 109t-108.5 39t-108.5 -39t-38.5 -109z" />
<glyph unicode="&#xa5;" horiz-adv-x="1185" d="M47 1047h365l30 -93l146 -295h20l166 283l41 105h356l-217 -379h166l17 -15l-13 -161h-270l-66 -113h332l17 -14l-13 -162h-374l10 -203h-348l12 203h-340l-12 18l10 158h303l-55 113h-246l-12 18l10 158h158z" />
<glyph unicode="&#xa6;" horiz-adv-x="614" d="M154 -492l2 791l266 31l31 -33l2 -799l-271 -22zM156 770l2 866l276 23l29 -27l-8 -850l-273 -34z" />
<glyph unicode="&#xa7;" horiz-adv-x="913" d="M14 473q0 94 48.5 180t130.5 146q-100 72 -101 194q0 96 57.5 178t160 130.5t227.5 48.5q70 0 151.5 -14.5t142.5 -37.5l-47 -282l-45 -17q-72 45 -140.5 71t-113.5 26q-29 0 -43 -10.5t-14 -24.5q0 -23 32 -39t99 -39q94 -31 160.5 -62.5t116 -92t49.5 -152.5 t-50.5 -178t-136.5 -144q52 -37 80.5 -85t28.5 -115q0 -94 -56.5 -174t-157.5 -127.5t-226 -47.5q-74 0 -173.5 15.5t-177.5 40.5l50 297l32 22q78 -59 163 -94t147 -35q61 0 61 33q0 23 -30.5 38t-98.5 36q-96 33 -161.5 64.5t-115 93t-49.5 157.5zM350 580q0 -41 33 -69 t96 -54q68 51 68 110q0 43 -35 71t-102 56q-59 -55 -60 -114z" />
<glyph unicode="&#xa8;" horiz-adv-x="794" d="M27 1284q0 86 49 135t133 49q78 0 122 -44t44 -124q0 -86 -48 -136t-132 -50q-82 0 -125 44t-43 126zM422 1284q0 86 49.5 135t133.5 49q77 0 121 -44t44 -124q0 -86 -48 -136t-132 -50q-82 0 -125 44t-43 126z" />
<glyph unicode="&#xa9;" horiz-adv-x="1411" d="M82 600q0 186 78 327.5t219 219.5t326 78q186 0 327.5 -78t219 -219.5t77.5 -327.5t-77.5 -327.5t-219 -219.5t-327.5 -78q-184 0 -325.5 78t-219.5 219.5t-78 327.5zM209 600q0 -147 62.5 -261t175 -176.5t258.5 -62.5q147 0 259.5 62.5t175 176.5t62.5 261t-62.5 261 t-175 176.5t-259.5 62.5q-146 0 -258.5 -62.5t-175 -176t-62.5 -261.5zM387 598q0 166 99.5 259t279.5 93q76 0 172 -18l-45 -205l-14 -10q-25 10 -60 16t-63 6q-53 0 -73.5 -22.5t-20.5 -87.5q0 -82 25.5 -118t86.5 -36q49 0 119 8l20 -12l-20 -203q-25 -4 -72 -4h-67 q-367 0 -367 334z" />
<glyph unicode="&#xaa;" horiz-adv-x="745" d="M31 866q0 158 166 183l202 24l2 10q0 35 -15 49.5t-50 14.5q-82 0 -211 -66l-16 11l-31 182q68 33 147.5 50t157.5 17q135 0 207 -53t72 -151q0 -57 -7 -144l-4 -114q0 -18 4 -25.5t15 -7.5q16 0 24 4l19 -16l-27 -146q-31 -23 -58.5 -32t-62.5 -9q-61 0 -91 21.5 t-48 76.5h-10q-59 -70 -144 -100q-111 0 -176 59.5t-65 161.5zM285 893q0 -55 51 -55q33 0 63 18v92l-75 -8q-20 -4 -29.5 -14.5t-9.5 -32.5z" />
<glyph unicode="&#xab;" horiz-adv-x="954" d="M98 438v56l256 376l187 -96l8 -35l-164 -268l164 -266l-8 -35l-187 -96zM520 438v56l256 376l187 -96l8 -35l-164 -268l164 -266l-8 -35l-187 -96z" />
<glyph unicode="&#xac;" d="M31 416l18 239h840l12 -18v-559l-239 -19l-27 25v305h-580z" />
<glyph unicode="&#xad;" horiz-adv-x="612" d="M51 373v245l479 78l29 -28l2 -246l-481 -78z" />
<glyph unicode="&#xae;" horiz-adv-x="929" d="M72 1047q0 176 108.5 284.5t284.5 108.5t284.5 -108.5t108.5 -284.5t-108.5 -285t-284.5 -109t-284.5 108.5t-108.5 285.5zM158 1047q0 -137 85 -222.5t222 -85.5q139 0 223 85t84 223q0 139 -84 223t-223 84q-137 0 -222 -84t-85 -223zM299 858l6 115l-6 287l205 2 q72 0 111.5 -34t39.5 -95q0 -35 -19.5 -67t-53.5 -52q51 -72 98 -127l-2 -15q-39 -14 -127 -22l-16 10q-35 61 -60 115h-51l6 -117h-131zM426 1067l55 -4q20 12 28.5 24.5t8.5 34.5q0 23 -14.5 33t-46.5 12l-27 -2z" />
<glyph unicode="&#xaf;" horiz-adv-x="794" d="M95 1196l18 219h565l25 -26l-19 -220h-565z" />
<glyph unicode="&#xb0;" horiz-adv-x="598" d="M23 1073q0 76 36.5 139.5t100 100.5t139.5 37t139.5 -37t100 -100.5t36.5 -139.5t-36.5 -139.5t-100 -100t-139.5 -36.5t-139.5 36.5t-100 100t-36.5 139.5zM184 1073q0 -51 32 -83t83 -32t83 32t32 83t-32 83t-83 32t-83 -32t-32 -83z" />
<glyph unicode="&#xb1;" d="M31 -270l18 239h881l24 -26l-18 -240h-881zM31 416l18 239h311v312l240 18l27 -24v-306h303l24 -26l-18 -240h-309v-311l-240 -19l-27 25v305h-305z" />
<glyph unicode="&#xb2;" horiz-adv-x="768" d="M45 1346q188 102 348 102q121 0 200 -55.5t79 -155.5q0 -59 -37 -129t-121 -168l-72 -82l4 -6h115l148 14l14 -18l-33 -232l-221 13h-348l-53 -4l-15 10v172l185 182q70 70 100.5 108t30.5 68q0 41 -54 41q-39 0 -90 -22.5t-96 -59.5h-33z" />
<glyph unicode="&#xb3;" horiz-adv-x="690" d="M25 1376q70 35 148.5 54.5t156.5 19.5q137 0 220 -57.5t83 -149.5q0 -119 -125 -186v-8q72 -23 105.5 -68t33.5 -117q0 -115 -113.5 -183.5t-300.5 -68.5q-90 0 -176 17l-18 209l20 18q94 -29 181 -29q61 0 88.5 11.5t27.5 38.5q0 35 -57 34h-127l-14 17l4 194l67 4 q45 2 71 16.5t26 41.5q0 20 -14.5 28.5t-49.5 8.5q-53 0 -160 -39h-30z" />
<glyph unicode="&#xb4;" horiz-adv-x="794" d="M105 1217q209 156 411 329l35 -2l142 -219l-7 -35q-291 -147 -456 -223l-35 2z" />
<glyph unicode="&#xb5;" horiz-adv-x="1415" d="M49 0l105 1051h450l27 -148l65 -311h23l76 295l36 164h441l86 -1051h-342l-2 317l-13 181h-20l-152 -408h-288l-117 408h-23l-16 -144l-12 -354h-324z" />
<glyph unicode="&#xb6;" horiz-adv-x="1155" d="M20 856q0 225 145.5 347t416.5 122h534l23 -27l-25 -276h-123l-14 -586l4 -141q0 -121 -43 -208t-146.5 -155.5t-283.5 -126.5l-102 183v32q109 53 152.5 110.5t43.5 150.5v114l-14 629h-64q-35 -16 -54 -63.5t-19 -116.5q0 -63 24.5 -130t71.5 -126l-141 -199 q-186 51 -286 172t-100 295z" />
<glyph unicode="&#xb7;" horiz-adv-x="466" d="M33 524q0 98 56 155.5t153 57.5q90 0 140 -51t50 -143q0 -98 -55 -155.5t-152 -57.5q-94 0 -143 50t-49 144z" />
<glyph unicode="&#xb8;" horiz-adv-x="794" d="M201 -379l23 154l16 6q31 -27 65.5 -42t57.5 -15q33 0 33 28q0 18 -25 31l-102 55l45 230h170l-29 -156l70 -39q49 -27 69.5 -58.5t20.5 -70.5q0 -76 -60.5 -124t-165.5 -48q-100 0 -188 49z" />
<glyph unicode="&#xb9;" horiz-adv-x="606" d="M8 1108v231l436 107l43 -29l-14 -499l12 -289h-307l12 260v231l-163 -24z" />
<glyph unicode="&#xba;" horiz-adv-x="729" d="M29 977q0 365 350 364q321 1 321 -333q0 -365 -350 -365q-322 0 -321 334zM295 1012q0 -80 6 -118t21.5 -53.5t46.5 -15.5q41 0 54 29t13 119q0 76 -6 112.5t-22.5 51t-47.5 14.5q-41 0 -53 -26.5t-12 -112.5z" />
<glyph unicode="&#xbb;" horiz-adv-x="954" d="M-16 211l164 268l-164 266l8 35l186 97l256 -365v-55l-256 -377l-186 96zM406 211l164 268l-164 266l8 35l186 97l256 -365v-55l-256 -377l-186 96z" />
<glyph unicode="&#xbc;" horiz-adv-x="1675" d="M8 999v232l436 106l43 -28l-14 -500l12 -289h-307l12 260v232l-163 -25zM149 -55l951 1476l155 -96l21 -49l-946 -1469l-168 103zM914 164v180l340 461h278l-6 -440h96l17 -25l-13 -199l-94 2l10 -125l-16 -18l-236 -12l-16 16l6 143h-178l-170 -6zM1168 365h118l-2 131 h-16z" />
<glyph unicode="&#xbd;" horiz-adv-x="1654" d="M8 999v232l436 106l43 -28l-14 -500l12 -289h-307l12 260v232l-163 -25zM149 -55l951 1476l155 -96l21 -49l-946 -1469l-168 103zM932 717q188 102 348 102q121 0 200 -55t79 -156q0 -59 -37 -128.5t-121 -168.5l-72 -82l4 -6h115l148 15l14 -19l-33 -231l-221 12h-348 l-53 -4l-15 10v172l185 182q72 72 101.5 109t29.5 68q0 41 -54 41q-39 0 -90 -23t-96 -59h-33z" />
<glyph unicode="&#xbe;" horiz-adv-x="1759" d="M25 1268q70 35 148.5 54t156.5 19q137 0 220 -57t83 -149q0 -119 -125 -187v-8q72 -23 105.5 -68t33.5 -116q0 -115 -113.5 -183.5t-300.5 -68.5q-90 0 -176 16l-18 209l20 19q94 -29 181 -29q61 0 88.5 11t27.5 38q0 35 -57 35h-127l-14 16l4 195l67 4q45 2 71 16.5 t26 40.5q0 20 -14.5 28.5t-49.5 8.5q-53 0 -160 -39h-30zM233 -55l951 1476l155 -96l21 -49l-946 -1469l-168 103zM998 164v180l340 461h278l-6 -440h96l17 -25l-13 -199l-94 2l10 -125l-16 -18l-236 -12l-16 16l6 143h-178l-170 -6zM1252 365h118l-2 131h-16z" />
<glyph unicode="&#xbf;" horiz-adv-x="610" d="M-37 258q0 74 46 139.5t128 96.5l88 32l6 11l-6 84l238 36l29 -26l20 -187l-10 -24l-113 -39q-74 -27 -74 -70q0 -31 51.5 -44t204.5 -19l29 -37l-72 -211l-30 -18q-258 6 -396.5 76.5t-138.5 199.5zM176 885q0 88 50 139t139 51q82 0 126 -44t44 -128q0 -88 -49.5 -139 t-137.5 -51q-82 0 -127 45t-45 127z" />
<glyph unicode="&#xc0;" horiz-adv-x="1284" d="M4 0l402 1325h495l363 -1325h-416l-37 219l-2 6l-201 4l-168 -8l-34 -221h-402zM350 1632l100 239l35 9q219 -129 461 -252l-62 -162l-34 -8q-217 55 -488 141zM518 524l115 -2l115 2l-91 434h-24z" />
<glyph unicode="&#xc1;" horiz-adv-x="1284" d="M4 0l402 1325h495l363 -1325h-416l-37 219l-2 6l-201 4l-168 -8l-34 -221h-402zM381 1628q242 123 460 252l35 -9l101 -239l-13 -33q-270 -86 -487 -141l-35 8zM518 524l115 -2l115 2l-91 434h-24z" />
<glyph unicode="&#xc2;" horiz-adv-x="1284" d="M4 0l402 1325h495l363 -1325h-416l-37 219l-2 6l-201 4l-168 -8l-34 -221h-402zM301 1632q184 127 313 244h70q129 -117 313 -244l-70 -156h-37l-241 123l-242 -123h-37zM518 524l115 -2l115 2l-91 434h-24z" />
<glyph unicode="&#xc3;" horiz-adv-x="1284" d="M4 0l402 1325h495l363 -1325h-416l-37 219l-2 6l-201 4l-168 -8l-34 -221h-402zM242 1550v33l166 231l33 12q55 -6 176 -41q16 -4 66 -16t71 -12q35 0 61.5 26.5t79.5 92.5h33l117 -113v-33l-166 -231l-33 -13q-55 6 -176 41q-16 4 -66.5 16.5t-70.5 12.5 q-35 0 -61.5 -26.5t-80.5 -92.5h-32zM518 524l115 -2l115 2l-91 434h-24z" />
<glyph unicode="&#xc4;" horiz-adv-x="1284" d="M4 0l402 1325h495l363 -1325h-416l-37 219l-2 6l-201 4l-168 -8l-34 -221h-402zM272 1642q0 86 49 135t133 49q78 0 122 -44t44 -124q0 -86 -48 -136t-132 -50q-82 0 -125 44t-43 126zM518 524l115 -2l115 2l-91 434h-24zM667 1642q0 86 49.5 135t133.5 49q77 0 121 -44 t44 -124q0 -86 -48 -136t-132 -50q-82 0 -125 44t-43 126z" />
<glyph unicode="&#xc5;" horiz-adv-x="1284" d="M4 0l402 1325h495l363 -1325h-416l-37 219l-2 6l-201 4l-168 -8l-34 -221h-402zM419 1679q0 113 59.5 170t174.5 57q217 0 217 -213q0 -113 -59.5 -173t-174.5 -60q-217 0 -217 219zM518 524l115 -2l115 2l-91 434h-24zM573 1685q0 -39 16.5 -54.5t57.5 -15.5 q39 0 54 14.5t15 49.5q0 37 -16 52.5t-57 15.5q-39 0 -54.5 -13.5t-15.5 -48.5z" />
<glyph unicode="&#xc6;" horiz-adv-x="1720" d="M-41 0l565 1325h1065l23 -29l-27 -299l-305 13h-156l17 -234l346 111l29 -23l36 -282l-389 -113l11 -154h186l338 13l22 -29l-24 -299h-893l-10 219l-11 135l-350 -106l-2 -4l-70 -244h-401zM569 602l187 57l-25 299h-24z" />
<glyph unicode="&#xc7;" horiz-adv-x="1052" d="M35 651q0 332 179 514.5t507 182.5q176 -1 332 -56l-70 -325l-27 -17q-53 29 -122.5 46.5t-128.5 17.5q-125 0 -180.5 -73t-55.5 -243q0 -199 63.5 -290t198.5 -91q57 0 128 11.5t124 31.5l33 -20l-33 -324q-123 -39 -285 -39q-330 0 -496.5 172.5t-166.5 501.5z M465 -377l23 154l16 6q31 -27 65.5 -42t57.5 -15q33 0 33 28q0 18 -25 31l-102 55l45 230h170l-29 -156l70 -39q49 -27 69.5 -58.5t20.5 -70.5q0 -76 -60.5 -124t-165.5 -48q-100 0 -188 49z" />
<glyph unicode="&#xc8;" horiz-adv-x="1107" d="M123 0l20 389l-20 936h950l23 -29l-27 -299l-326 13h-211l-4 -187h203l213 6l23 -28l-25 -299l-237 6h-185l-2 -78l4 -115h197l340 13l22 -29l-24 -299h-934zM303 1632l100 239l35 9q219 -129 461 -252l-62 -162l-34 -8q-217 55 -488 141z" />
<glyph unicode="&#xc9;" horiz-adv-x="1107" d="M123 0l20 389l-20 936h950l23 -29l-27 -299l-326 13h-211l-4 -187h203l213 6l23 -28l-25 -299l-237 6h-185l-2 -78l4 -115h197l340 13l22 -29l-24 -299h-934zM334 1628q242 123 460 252l35 -9l101 -239l-13 -33q-270 -86 -487 -141l-35 8z" />
<glyph unicode="&#xca;" horiz-adv-x="1107" d="M123 0l20 389l-20 936h950l23 -29l-27 -299l-326 13h-211l-4 -187h203l213 6l23 -28l-25 -299l-237 6h-185l-2 -78l4 -115h197l340 13l22 -29l-24 -299h-934zM254 1632q184 127 313 244h70q129 -117 313 -244l-70 -156h-37l-241 123l-242 -123h-37z" />
<glyph unicode="&#xcb;" horiz-adv-x="1107" d="M123 0l20 389l-20 936h950l23 -29l-27 -299l-326 13h-211l-4 -187h203l213 6l23 -28l-25 -299l-237 6h-185l-2 -78l4 -115h197l340 13l22 -29l-24 -299h-934zM225 1642q0 86 49 135t133 49q78 0 122 -44t44 -124q0 -86 -48 -136t-132 -50q-82 0 -125 44t-43 126z M620 1642q0 86 49.5 135t133.5 49q77 0 121 -44t44 -124q0 -86 -48 -136t-132 -50q-82 0 -125 44t-43 126z" />
<glyph unicode="&#xcc;" horiz-adv-x="669" d="M37 1632l100 239l35 9q219 -129 461 -252l-62 -162l-34 -8q-217 55 -488 141zM123 0l20 389l-20 936h418l-23 -895l17 -430h-412z" />
<glyph unicode="&#xcd;" horiz-adv-x="669" d="M68 1628q242 123 460 252l35 -9l101 -239l-13 -33q-270 -86 -487 -141l-35 8zM123 0l20 389l-20 936h418l-23 -895l17 -430h-412z" />
<glyph unicode="&#xce;" horiz-adv-x="669" d="M-12 1632q184 127 313 244h70q129 -117 313 -244l-70 -156h-37l-241 123l-242 -123h-37zM123 0l20 389l-20 936h418l-23 -895l17 -430h-412z" />
<glyph unicode="&#xd0;" horiz-adv-x="1423" d="M32 539l14 240h706l18 -27l-13 -240h-707zM184 0l20 389l-20 936l598 8q293 0 449.5 -158.5t156.5 -457.5q0 -354 -182 -544.5t-522 -190.5q-213 0 -500 18zM579 430l4 -127q123 -16 178 -16q97 0 147 76.5t50 252.5q0 150 -20.5 236t-65.5 124t-125 38q-78 0 -154 -8z " />
<glyph unicode="&#xd1;" horiz-adv-x="1454" d="M123 0l20 389l-20 936h446l373 -709h25l-13 695l377 22l-22 -901l16 -432h-446l-373 709h-25l-2 -230l17 -479h-373zM324 1550v33l166 231l33 12q55 -6 176 -41q16 -4 66 -16t71 -12q35 0 61.5 26.5t79.5 92.5h33l117 -113v-33l-166 -231l-33 -13q-55 6 -176 41 q-16 4 -66.5 16.5t-70.5 12.5q-35 0 -61.5 -26.5t-80.5 -92.5h-32z" />
<glyph unicode="&#xd2;" horiz-adv-x="1337" d="M35 639q0 340 173 525.5t490 185.5q289 0 447 -171t158 -483q0 -344 -173.5 -532.5t-490.5 -188.5q-289 0 -446.5 173.5t-157.5 490.5zM375 1632l100 239l35 9q219 -129 461 -252l-62 -162l-34 -8q-217 55 -488 141zM465 694q0 -170 18.5 -258t62.5 -122.5t130 -34.5 q80 0 121 27.5t58 98t17 203.5q0 168 -18 256t-62 123t-130 35q-80 0 -121 -27.5t-58.5 -97.5t-17.5 -203z" />
<glyph unicode="&#xd3;" horiz-adv-x="1337" d="M35 639q0 340 173 525.5t490 185.5q289 0 447 -171t158 -483q0 -344 -173.5 -532.5t-490.5 -188.5q-289 0 -446.5 173.5t-157.5 490.5zM406 1628q242 123 460 252l35 -9l101 -239l-13 -33q-270 -86 -487 -141l-35 8zM465 694q0 -170 18.5 -258t62.5 -122.5t130 -34.5 q80 0 121 27.5t58 98t17 203.5q0 168 -18 256t-62 123t-130 35q-80 0 -121 -27.5t-58.5 -97.5t-17.5 -203z" />
<glyph unicode="&#xd4;" horiz-adv-x="1337" d="M35 639q0 340 173 525.5t490 185.5q289 0 447 -171t158 -483q0 -344 -173.5 -532.5t-490.5 -188.5q-289 0 -446.5 173.5t-157.5 490.5zM326 1632q184 127 313 244h70q129 -117 313 -244l-70 -156h-37l-241 123l-242 -123h-37zM465 694q0 -170 18.5 -258t62.5 -122.5 t130 -34.5q80 0 121 27.5t58 98t17 203.5q0 168 -18 256t-62 123t-130 35q-80 0 -121 -27.5t-58.5 -97.5t-17.5 -203z" />
<glyph unicode="&#xd5;" horiz-adv-x="1337" d="M35 639q0 340 173 525.5t490 185.5q289 0 447 -171t158 -483q0 -344 -173.5 -532.5t-490.5 -188.5q-289 0 -446.5 173.5t-157.5 490.5zM266 1550v33l166 231l33 12q55 -6 176 -41q16 -4 66 -16t71 -12q35 0 61.5 26.5t79.5 92.5h33l117 -113v-33l-166 -231l-33 -13 q-55 6 -176 41q-16 4 -66.5 16.5t-70.5 12.5q-35 0 -61.5 -26.5t-80.5 -92.5h-32zM465 694q0 -170 18.5 -258t62.5 -122.5t130 -34.5q80 0 121 27.5t58 98t17 203.5q0 168 -18 256t-62 123t-130 35q-80 0 -121 -27.5t-58.5 -97.5t-17.5 -203z" />
<glyph unicode="&#xd7;" d="M90 270v35l215 217l-215 215v37l182 156l222 -219l219 219l182 -156l2 -37l-215 -215l213 -215v-37l-182 -155l-219 219l-222 -221z" />
<glyph unicode="&#xd8;" horiz-adv-x="1337" d="M35 639q0 340 173 525.5t490 185.5q78 0 148 -13l127 258l246 -94l24 -39l-127 -254q187 -174 187 -512q0 -344 -173.5 -532.5t-490.5 -188.5q-59 0 -125 11l-131 -271l-254 97l-16 34l127 258q-100 84 -152.5 220.5t-52.5 314.5zM465 694q0 -170 18.5 -258t62.5 -122.5 t130 -34.5q80 0 121 27.5t58 98t17 203.5q0 168 -18 256t-62 123t-130 35q-80 0 -121 -27.5t-58.5 -97.5t-17.5 -203z" />
<glyph unicode="&#xd9;" horiz-adv-x="1337" d="M94 1325h412l-19 -827q-2 -104 40 -151.5t137 -47.5q96 0 139 47t41 152l-19 827h418l-14 -672l-2 -211q-2 -225 -151.5 -346t-428.5 -121q-268 0 -410.5 121t-136.5 346l6 211zM375 1632l100 239l35 9q219 -129 461 -252l-62 -162l-34 -8q-217 55 -488 141z" />
<glyph unicode="&#xda;" horiz-adv-x="1337" d="M94 1325h412l-19 -827q-2 -104 40 -151.5t137 -47.5q96 0 139 47t41 152l-19 827h418l-14 -672l-2 -211q-2 -225 -151.5 -346t-428.5 -121q-268 0 -410.5 121t-136.5 346l6 211zM406 1628q242 123 460 252l35 -9l101 -239l-13 -33q-270 -86 -487 -141l-35 8z" />
<glyph unicode="&#xdb;" horiz-adv-x="1337" d="M94 1325h412l-19 -827q-2 -104 40 -151.5t137 -47.5q96 0 139 47t41 152l-19 827h418l-14 -672l-2 -211q-2 -225 -151.5 -346t-428.5 -121q-268 0 -410.5 121t-136.5 346l6 211zM326 1632q184 127 313 244h70q129 -117 313 -244l-70 -156h-37l-241 123l-242 -123h-37z " />
<glyph unicode="&#xdc;" horiz-adv-x="1337" d="M94 1325h412l-19 -827q-2 -104 40 -151.5t137 -47.5q96 0 139 47t41 152l-19 827h418l-14 -672l-2 -211q-2 -225 -151.5 -346t-428.5 -121q-268 0 -410.5 121t-136.5 346l6 211zM297 1642q0 86 49 135t133 49q78 0 122 -44t44 -124q0 -86 -48 -136t-132 -50 q-82 0 -125 44t-43 126zM692 1642q0 86 49.5 135t133.5 49q77 0 121 -44t44 -124q0 -86 -48 -136t-132 -50q-82 0 -125 44t-43 126z" />
<glyph unicode="&#xde;" horiz-adv-x="1232" d="M123 0l20 389l-16 746l-4 6h4l-4 184h422l-4 -182h223q229 0 349 -106.5t120 -319.5q0 -244 -156.5 -378t-445.5 -134l-101 -2l9 -203h-416zM524 500l164 -8q55 30 82 73t27 119q0 90 -42 129t-139 43l-84 -6z" />
<glyph unicode="&#xdf;" horiz-adv-x="1275" d="M86 0l18 307l-8 338q0 199 139.5 312.5t411.5 113.5q133 0 249 -28.5t265 -94.5l15 -41l-199 -274q121 -82 178 -131t81 -94.5t24 -106.5q0 -166 -122 -245t-307 -79q-170 0 -327 60l55 330l29 18q131 -109 217 -109q41 0 41 29q0 20 -29 41t-123 74q-45 25 -143 80 l-6 35l166 229q-57 10 -101 10q-86 0 -118.5 -27.5t-30.5 -101.5l-10 -301l16 -344h-381z" />
<glyph unicode="&#xe0;" horiz-adv-x="1124" d="M14 0l326 1051h459l295 -1051h-385l-23 145l-156 5l-122 -7l-23 -143h-371zM285 1409l141 219l35 2q203 -174 411 -330l-90 -147l-34 -2q-166 76 -457 223zM473 422l80 -2l80 2l-60 293h-22z" />
<glyph unicode="&#xe1;" horiz-adv-x="1124" d="M14 0l326 1051h459l295 -1051h-385l-23 145l-156 5l-122 -7l-23 -143h-371zM324 1300q209 156 411 330l35 -2l141 -219l-6 -35q-291 -147 -456 -223l-35 2zM473 422l80 -2l80 2l-60 293h-22z" />
<glyph unicode="&#xe2;" horiz-adv-x="1124" d="M14 0l326 1051h459l295 -1051h-385l-23 145l-156 5l-122 -7l-23 -143h-371zM209 1317q141 119 334 307h69q143 -143 334 -307l-96 -148h-37q-156 98 -235 160q-80 -61 -236 -160h-37zM473 422l80 -2l80 2l-60 293h-22z" />
<glyph unicode="&#xe3;" horiz-adv-x="1124" d="M14 0l326 1051h459l295 -1051h-385l-23 145l-156 5l-122 -7l-23 -143h-371zM174 1276v33l166 231l33 12q55 -6 176 -41q16 -4 66.5 -16t70.5 -12q35 0 61.5 26.5t79.5 92.5h33l117 -113v-33l-166 -231l-33 -13q-55 6 -176 41q-16 4 -66.5 16.5t-70.5 12.5 q-35 0 -61.5 -26.5t-79.5 -92.5h-33zM473 422l80 -2l80 2l-60 293h-22z" />
<glyph unicode="&#xe4;" horiz-adv-x="1124" d="M14 0l326 1051h459l295 -1051h-385l-23 145l-156 5l-122 -7l-23 -143h-371zM205 1368q0 86 49 135t133 49q78 0 122 -44t44 -124q0 -86 -48 -136t-132 -50q-82 0 -125 44t-43 126zM473 422l80 -2l80 2l-60 293h-22zM600 1368q0 86 49 135t133 49q78 0 122 -44t44 -124 q0 -86 -48 -136t-132 -50q-82 0 -125 44t-43 126z" />
<glyph unicode="&#xe5;" horiz-adv-x="1124" d="M14 0l326 1051h459l295 -1051h-385l-23 145l-156 5l-122 -7l-23 -143h-371zM352 1405q0 113 59.5 170t174.5 57q217 0 217 -213q0 -113 -59.5 -173t-174.5 -60q-217 0 -217 219zM473 422l80 -2l80 2l-60 293h-22zM506 1411q0 -39 16.5 -54.5t57.5 -15.5q39 0 54 14.5 t15 49.5q0 37 -16.5 52.5t-57.5 15.5q-38 0 -53.5 -13.5t-15.5 -48.5z" />
<glyph unicode="&#xe6;" horiz-adv-x="1482" d="M-23 0l488 1049h901l20 -27l-22 -250l-264 12h-131l14 -166l299 91l23 -21l30 -235l-331 -91l8 -98h159l289 10l21 -24l-23 -250h-758l-8 180l-8 90l-319 -94l-50 -176h-338zM498 475l161 49l-20 217h-23z" />
<glyph unicode="&#xe7;" horiz-adv-x="915" d="M37 514q0 264 153.5 409.5t436.5 145.5q145 0 276 -33l-63 -301l-25 -16q-41 18 -98.5 30.5t-104.5 12.5q-94 0 -134 -45t-40 -158q0 -141 48.5 -203.5t152.5 -62.5q43 0 100.5 6t98.5 14l30 -18l-30 -299q-92 -16 -199 -16l-12 -66l69 -39q49 -27 69.5 -58.5t20.5 -70.5 q0 -76 -60 -124t-165 -48q-100 0 -188 49l22 154l17 6q31 -27 65.5 -42t57.5 -15q33 0 32 28q0 18 -24 31l-103 55l29 150q-217 31 -324.5 164t-107.5 360z" />
<glyph unicode="&#xe8;" d="M109 0l18 305l-18 746h827l20 -27l-22 -276l-277 12h-172l-2 -90h164l178 6l21 -27l-23 -276l-200 6h-148l-2 -35l2 -53h162l287 10l20 -25l-22 -276h-813zM227 1409l142 219l34 2q203 -174 412 -330l-90 -147l-35 -2q-166 76 -457 223z" />
<glyph unicode="&#xe9;" d="M109 0l18 305l-18 746h827l20 -27l-22 -276l-277 12h-172l-2 -90h164l178 6l21 -27l-23 -276l-200 6h-148l-2 -35l2 -53h162l287 10l20 -25l-22 -276h-813zM266 1300q209 156 412 330l35 -2l141 -219l-6 -35q-291 -147 -457 -223l-35 2z" />
<glyph unicode="&#xea;" d="M109 0l18 305l-18 746h827l20 -27l-22 -276l-277 12h-172l-2 -90h164l178 6l21 -27l-23 -276l-200 6h-148l-2 -35l2 -53h162l287 10l20 -25l-22 -276h-813zM152 1317q141 119 333 307h70q143 -143 334 -307l-96 -148h-37q-156 98 -236 160q-80 -61 -235 -160h-37z" />
<glyph unicode="&#xeb;" d="M109 0l18 305l-18 746h827l20 -27l-22 -276l-277 12h-172l-2 -90h164l178 6l21 -27l-23 -276l-200 6h-148l-2 -35l2 -53h162l287 10l20 -25l-22 -276h-813zM147 1368q0 86 49.5 135t133.5 49q78 0 122 -44t44 -124q0 -86 -48.5 -136t-132.5 -50q-82 0 -125 44t-43 126z M543 1368q0 86 49 135t133 49q78 0 122 -44t44 -124q0 -86 -48 -136t-132 -50q-82 0 -125 44t-43 126z" />
<glyph unicode="&#xec;" horiz-adv-x="620" d="M18 1409l142 219l35 2q202 -174 411 -330l-90 -147l-35 -2q-166 76 -456 223zM109 0l18 305l-18 746h387l-23 -707l16 -344h-380z" />
<glyph unicode="&#xed;" horiz-adv-x="620" d="M59 1300q209 156 412 330l35 -2l141 -219l-6 -35q-291 -147 -457 -223l-34 2zM109 0l18 305l-18 746h387l-23 -707l16 -344h-380z" />
<glyph unicode="&#xee;" horiz-adv-x="620" d="M-55 1317q141 119 334 307h69q143 -143 334 -307l-96 -148h-37q-156 98 -236 160q-80 -61 -235 -160h-37zM109 0l18 305l-18 746h387l-23 -707l16 -344h-380z" />
<glyph unicode="&#xf0;" horiz-adv-x="1243" d="M41 426l14 205h129l-10 420l520 6q248 0 380 -126t132 -362q0 -283 -155.5 -434t-446.5 -151q-147 0 -430 16l19 305l-3 94h-131zM539 344l2 -63q98 -16 135 -17q65 0 99 47t34 164q0 113 -13.5 174.5t-45 87t-88.5 25.5q-43 0 -111 -6l-4 -125h166l18 -27l-16 -205h-174 z" />
<glyph unicode="&#xf1;" horiz-adv-x="1257" d="M109 0l18 307l-18 744h413l271 -484h22l-12 469l348 21l-21 -705l15 -352h-414l-270 483h-21l-2 -94l15 -389h-344zM223 1276v33l166 231l33 12q55 -6 176 -41q16 -4 66.5 -16t70.5 -12q35 0 61.5 26.5t80.5 92.5h32l117 -113v-33l-166 -231l-33 -13q-55 6 -176 41 l-66 16.5t-71 12.5q-35 0 -61.5 -26.5t-79.5 -92.5h-33z" />
<glyph unicode="&#xf2;" horiz-adv-x="1157" d="M37 504q0 270 148.5 418.5t418.5 148.5q246 0 380 -135t134 -383q0 -274 -148.5 -425t-418.5 -151q-246 0 -380 138.5t-134 388.5zM289 1409l141 219l35 2q203 -174 412 -330l-91 -147l-34 -2q-166 76 -457 223zM434 555q0 -129 12.5 -190.5t43 -84t96.5 -22.5 q59 0 86.5 15.5t38 59.5t10.5 138q0 131 -11.5 192.5t-43 84t-97.5 22.5q-57 0 -84.5 -15.5t-39 -60.5t-11.5 -139z" />
<glyph unicode="&#xf3;" horiz-adv-x="1157" d="M37 504q0 270 148.5 418.5t418.5 148.5q246 0 380 -135t134 -383q0 -274 -148.5 -425t-418.5 -151q-246 0 -380 138.5t-134 388.5zM328 1300q209 156 411 330l35 -2l141 -219l-6 -35q-291 -147 -456 -223l-35 2zM434 555q0 -129 12.5 -190.5t43 -84t96.5 -22.5 q59 0 86.5 15.5t38 59.5t10.5 138q0 131 -11.5 192.5t-43 84t-97.5 22.5q-57 0 -84.5 -15.5t-39 -60.5t-11.5 -139z" />
<glyph unicode="&#xf4;" horiz-adv-x="1157" d="M37 504q0 270 148.5 418.5t418.5 148.5q246 0 380 -135t134 -383q0 -274 -148.5 -425t-418.5 -151q-246 0 -380 138.5t-134 388.5zM213 1317q141 119 334 307h69q143 -143 334 -307l-96 -148h-37q-156 98 -235 160q-80 -61 -236 -160h-37zM434 555q0 -129 12.5 -190.5 t43 -84t96.5 -22.5q59 0 86.5 15.5t38 59.5t10.5 138q0 131 -11.5 192.5t-43 84t-97.5 22.5q-57 0 -84.5 -15.5t-39 -60.5t-11.5 -139z" />
<glyph unicode="&#xf5;" horiz-adv-x="1157" d="M37 504q0 270 148.5 418.5t418.5 148.5q246 0 380 -135t134 -383q0 -274 -148.5 -425t-418.5 -151q-246 0 -380 138.5t-134 388.5zM178 1276v33l166 231l33 12q55 -6 176 -41q16 -4 66.5 -16t70.5 -12q35 0 61.5 26.5t79.5 92.5h33l117 -113v-33l-166 -231l-33 -13 q-55 6 -176 41q-16 4 -66.5 16.5t-70.5 12.5q-35 0 -61.5 -26.5t-79.5 -92.5h-33zM434 555q0 -129 12.5 -190.5t43 -84t96.5 -22.5q59 0 86.5 15.5t38 59.5t10.5 138q0 131 -11.5 192.5t-43 84t-97.5 22.5q-57 0 -84.5 -15.5t-39 -60.5t-11.5 -139z" />
<glyph unicode="&#xf7;" d="M31 416l18 239h881l24 -26l-18 -240h-881zM349 179q0 80 46 127t125 47q74 0 114.5 -41.5t40.5 -116.5q0 -81 -45 -128t-124 -47q-77 0 -117 41t-40 118zM349 844q0 80 46 127t125 47q74 0 114.5 -41.5t40.5 -116.5q0 -81 -45 -128t-124 -47q-77 0 -117 41t-40 118z" />
<glyph unicode="&#xf8;" horiz-adv-x="1157" d="M37 504q0 270 148.5 418.5t418.5 148.5q82 0 158 -16l125 202l215 -112l18 -35l-119 -192q117 -135 117 -365q0 -274 -148.5 -425t-418.5 -151q-68 0 -117 9l-151 -248l-226 115l-8 32l133 219q-145 139 -145 400zM434 555q0 -129 12.5 -190.5t43 -84t96.5 -22.5 q59 0 86.5 15.5t38 59.5t10.5 138q0 131 -11.5 192.5t-43 84t-97.5 22.5q-57 0 -84.5 -15.5t-39 -60.5t-11.5 -139z" />
<glyph unicode="&#xf9;" horiz-adv-x="1159" d="M86 1051h379l-16 -654q-2 -66 26.5 -93.5t99.5 -27.5q72 0 102 28t28 93l-17 654h385l-12 -533l-2 -172q-2 -178 -131 -273.5t-369 -95.5q-231 0 -352 95.5t-115 273.5l4 170zM287 1409l141 219l35 2q202 -174 411 -330l-90 -147l-34 -2q-166 76 -457 223z" />
<glyph unicode="&#xfa;" horiz-adv-x="1159" d="M86 1051h379l-16 -654q-2 -66 26.5 -93.5t99.5 -27.5q72 0 102 28t28 93l-17 654h385l-12 -533l-2 -172q-2 -178 -131 -273.5t-369 -95.5q-231 0 -352 95.5t-115 273.5l4 170zM326 1300q209 156 411 330l35 -2l141 -219l-6 -35q-291 -147 -456 -223l-35 2z" />
<glyph unicode="&#xfb;" horiz-adv-x="1159" d="M86 1051h379l-16 -654q-2 -66 26.5 -93.5t99.5 -27.5q72 0 102 28t28 93l-17 654h385l-12 -533l-2 -172q-2 -178 -131 -273.5t-369 -95.5q-231 0 -352 95.5t-115 273.5l4 170zM211 1317q141 119 334 307h69q143 -143 334 -307l-96 -148h-37q-156 98 -235 160 q-80 -61 -236 -160h-37z" />
<glyph unicode="&#xfc;" horiz-adv-x="1159" d="M86 1051h379l-16 -654q-2 -66 26.5 -93.5t99.5 -27.5q72 0 102 28t28 93l-17 654h385l-12 -533l-2 -172q-2 -178 -131 -273.5t-369 -95.5q-231 0 -352 95.5t-115 273.5l4 170zM207 1368q0 86 49 135t133 49q78 0 122 -44t44 -124q0 -86 -48 -136t-132 -50q-82 0 -125 44 t-43 126zM602 1368q0 86 49 135t133 49q78 0 122 -44t44 -124q0 -86 -48 -136t-132 -50q-82 0 -125 44t-43 126z" />
<glyph unicode="&#xfe;" horiz-adv-x="1091" d="M109 0l18 305l-14 604l-4 4h4l-4 138h391l-4 -136h184q199 0 301 -86t102 -260q0 -197 -136 -306t-386 -109l-76 -2l9 -152h-385zM479 426l131 -8q37 26 53.5 50t16.5 71q0 63 -31 86.5t-108 27.5l-54 -6z" />
<glyph unicode="&#xff;" horiz-adv-x="1075" d="M-6 1051h397l29 -97l106 -272h21l125 258l41 111h387l-402 -738l-2 -45l17 -268h-379l18 268l-2 35zM178 1368q0 86 49 135t133 49q78 0 122 -44t44 -124q0 -86 -48 -136t-132 -50q-82 0 -125 44t-43 126zM573 1368q0 86 49.5 135t133.5 49q78 0 122 -44t44 -124 q0 -86 -48.5 -136t-132.5 -50q-82 0 -125 44t-43 126z" />
<glyph unicode="&#x2c6;" horiz-adv-x="794" d="M27 1233q141 119 334 307h69q143 -143 334 -307l-96 -148h-37q-156 98 -235 160q-80 -61 -236 -160h-37z" />
<glyph unicode="&#x2da;" horiz-adv-x="794" d="M172 1321q0 113 59.5 170t174.5 57q217 0 217 -213q0 -113 -59.5 -173t-174.5 -60q-217 0 -217 219zM326 1327q0 -39 16.5 -54.5t57.5 -15.5q39 0 54 14.5t15 49.5q0 37 -16 52.5t-57 15.5q-39 0 -54.5 -13.5t-15.5 -48.5z" />
<glyph unicode="&#x2dc;" horiz-adv-x="794" d="M-6 1192v33l166 231l33 12q55 -6 176 -41q16 -4 66 -16t71 -12q35 0 61.5 26.5t79.5 92.5h33l117 -113v-33l-166 -231l-33 -13q-55 6 -176 41q-16 4 -66.5 16.5t-70.5 12.5q-35 0 -61.5 -26.5t-80.5 -92.5h-32z" />
<glyph unicode="&#x400;" horiz-adv-x="1157" d="M121 0l20 389l-20 936h950l23 -29l-27 -299l-326 13h-211l-4 -187h203l213 6l23 -28l-25 -299l-237 6h-185l-2 -78l4 -115h197l340 13l22 -29l-24 -299h-934zM301 1632l100 239l35 9q219 -129 461 -252l-62 -162l-34 -8q-217 55 -488 141z" />
<glyph unicode="&#x401;" horiz-adv-x="1157" d="M121 0l20 389l-20 936h950l23 -29l-27 -299l-326 13h-211l-4 -187h203l213 6l23 -28l-25 -299l-237 6h-185l-2 -78l4 -115h197l340 13l22 -29l-24 -299h-934zM223 1642q0 86 49 135t133 49q78 0 122 -44t44 -124q0 -86 -48 -136t-132 -50q-82 0 -125 44t-43 126z M618 1642q0 86 49.5 135t133.5 49q77 0 121 -44t44 -124q0 -86 -48 -136t-132 -50q-82 0 -125 44t-43 126z" />
<glyph unicode="&#x402;" horiz-adv-x="1458" d="M16 1026l23 299h1091l23 -29l-23 -299l-270 13h-123l-6 -273h21q92 98 233 152q156 0 247 -49t133 -159t42 -294q0 -279 -95 -463t-313 -327l-151 161v33q184 168 184 524q0 129 -28.5 178.5t-102.5 49.5q-80 0 -176 -58l-2 -55l16 -430h-411l20 389l-14 621h-62 l-231 -13z" />
<glyph unicode="&#x403;" horiz-adv-x="976" d="M121 0l21 389l-21 936h817l21 -29l-25 -299l-297 13h-106l-14 -580l16 -430h-412zM287 1628q242 123 460 252l35 -9l101 -239l-13 -33q-270 -86 -487 -141l-35 8z" />
<glyph unicode="&#x404;" horiz-adv-x="1185" d="M51 631q0 352 185.5 534.5t543.5 182.5q190 0 363 -56l-70 -325l-29 -17q-63 29 -146 46.5t-155 17.5q-113 0 -171 -44t-78 -147h182l254 6l20 -28l-22 -299l-279 6h-151q20 -102 81.5 -145.5t184.5 -43.5q119 0 309 41l35 -20l-33 -324q-170 -39 -342 -39 q-346 0 -514 161t-168 493z" />
<glyph unicode="&#x405;" horiz-adv-x="1097" d="M49 53l59 357l41 24q94 -72 201.5 -113.5t179.5 -41.5q57 0 83 19t26 48q0 43 -44 73t-143 73q-113 49 -185.5 93t-125.5 120.5t-53 189.5q0 129 69.5 232.5t194.5 163t285 59.5q195 0 385 -72l-66 -334l-57 -24q-86 53 -170 83.5t-135 30.5q-47 0 -75 -18.5t-28 -48.5 q0 -39 42 -67t141 -73q115 -51 188.5 -95t128.5 -120.5t55 -189.5q0 -125 -68.5 -226.5t-195.5 -161t-295 -59.5q-209 0 -438 78z" />
<glyph unicode="&#x406;" horiz-adv-x="657" d="M121 0l20 389l-20 936h418l-23 -895l17 -430h-412z" />
<glyph unicode="&#x407;" horiz-adv-x="669" d="M-41 1642q0 86 49 135t133 49q78 0 122 -44t44 -124q0 -86 -48 -136t-132 -50q-82 0 -125 44t-43 126zM123 0l20 389l-20 936h418l-23 -895l17 -430h-412zM354 1642q0 86 49.5 135t133.5 49q77 0 121 -44t44 -124q0 -86 -48 -136t-132 -50q-82 0 -125 44t-43 126z" />
<glyph unicode="&#x408;" horiz-adv-x="749" d="M30 1057l17 268h592l-23 -889l4 -182q0 -129 -43 -217t-142.5 -151.5t-275.5 -114.5l-106 211v32q104 51 146 106.5t42 145.5v129l-14 641l-174 -6z" />
<glyph unicode="&#x409;" horiz-adv-x="1955" d="M14 303q98 16 153.5 82t90.5 214.5t70 442.5l32 283h875l-12 -461h268q215 0 327.5 -95t112.5 -275q0 -152 -75.5 -262.5t-217 -171t-335.5 -60.5h-486l21 389l-15 633h-141l-8 -55q-53 -408 -112.5 -619t-146.5 -297t-235 -86h-100zM1212 430l7 -139l167 -12 q56 18 84.5 60t28.5 99q0 68 -39 107t-108 37l-135 -4z" />
<glyph unicode="&#x40a;" horiz-adv-x="2048" d="M121 0l20 389l-20 936h418l-13 -481l207 -4l191 4l-13 483h416l-12 -469h268q217 0 328.5 -92t111.5 -272q0 -152 -75.5 -262.5t-217 -171t-335.5 -60.5h-484l23 387l-4 154h-221l-191 -6l-2 -105l16 -430h-411zM1305 428l6 -139l168 -10q55 18 83.5 58t28.5 95 q0 66 -37.5 100.5t-109.5 30.5l-135 -4z" />
<glyph unicode="&#x40b;" horiz-adv-x="1474" d="M18 1026l23 299h1092l22 -29l-22 -299l-271 13h-125l-6 -273h21q92 98 233 152q221 0 321.5 -110.5t100.5 -352.5l14 -426h-409l20 356q0 98 -31.5 142.5t-103.5 44.5q-80 0 -172 -56l-2 -57l16 -430h-411l20 389l-14 621h-60l-231 -13z" />
<glyph unicode="&#x40c;" horiz-adv-x="1331" d="M121 0l20 389l-20 936h418l-15 -553l254 410l70 143h434l-389 -627q188 -295 430 -612l-6 -45q-215 -47 -410 -66l-45 25q-209 358 -342 608l-4 -178l17 -430h-412zM377 1628q242 123 460 252l35 -9l101 -239l-13 -33q-270 -86 -487 -141l-35 8z" />
<glyph unicode="&#x40d;" horiz-adv-x="1464" d="M121 0l20 389l-20 926l418 20l-29 -723h25l372 713h439l-23 -895l16 -430h-411l20 389l2 328h-24l-375 -717h-430zM443 1632l100 239l35 9q219 -129 461 -252l-62 -162l-34 -8q-217 55 -488 141z" />
<glyph unicode="&#x40e;" horiz-adv-x="1263" d="M-2 1325h436l58 -172l163 -448h25l143 473l39 147h398l-336 -881q-88 -193 -171 -290t-199 -137t-304 -40l-27 5q-47 147 -67 323l14 35q195 12 285 35zM170 1642l201 137h39q31 -80 71.5 -108.5t120.5 -28.5q78 0 117 27.5t69 109.5h35l203 -137q-57 -109 -171 -169 t-263 -60q-147 0 -256 58t-166 171z" />
<glyph unicode="&#x40f;" horiz-adv-x="1394" d="M121 0l20 389l-20 936h418l-23 -895l4 -119h354l5 78l-21 936h418l-23 -895l17 -430h-393l-33 -322l-297 -20l-35 342h-391z" />
<glyph unicode="&#x410;" horiz-adv-x="1282" d="M10 0l402 1325h495l363 -1325h-416l-37 219l-2 6l-201 4l-168 -8l-34 -221h-402zM524 524l115 -2l115 2l-91 434h-24z" />
<glyph unicode="&#x411;" horiz-adv-x="1290" d="M121 0l22 387l-22 938h1044l21 -29l-25 -299l-342 13h-291l-4 -174h273q219 0 331.5 -91.5t112.5 -267.5q0 -147 -75.5 -254.5t-219 -165t-338.5 -57.5h-487zM514 428l6 -143l172 -13q58 19 87.5 58t29.5 94q0 66 -39 100.5t-111 32.5l-141 -4z" />
<glyph unicode="&#x412;" horiz-adv-x="1282" d="M121 0l20 389l-20 936l592 2q225 0 352 -87t127 -253q0 -102 -52 -181t-151 -124q129 -37 187.5 -109.5t58.5 -189.5q0 -207 -169 -302t-505 -95q-186 0 -440 14zM502 430l6 -166q102 -8 131 -8q84 0 132 37t48 106q0 47 -27.5 76t-88.5 49l-199 -4zM510 784l154 -6 q57 18 83.5 53t26.5 97q0 71 -50 99t-187 28h-19z" />
<glyph unicode="&#x413;" horiz-adv-x="976" d="M121 0l21 389l-21 936h817l21 -29l-25 -299l-297 13h-106l-14 -580l16 -430h-412z" />
<glyph unicode="&#x414;" horiz-adv-x="1509" d="M27 -301v633h104q94 37 144.5 106.5t82 204.5t62.5 399l33 283h868l-23 -895l5 -98h180v-613l-297 -20l-51 301h-758l-47 -281zM586 332h336l2 57l-15 633h-133l-6 -55q-33 -266 -75 -411.5t-109 -223.5z" />
<glyph unicode="&#x415;" horiz-adv-x="1157" d="M121 0l20 389l-20 936h950l23 -29l-27 -299l-326 13h-211l-4 -187h203l213 6l23 -28l-25 -299l-237 6h-185l-2 -78l4 -115h197l340 13l22 -29l-24 -299h-934z" />
<glyph unicode="&#x416;" horiz-adv-x="1923" d="M10 84q217 309 400 614l-361 627h426l66 -143l227 -406l-10 549h409l-14 -551l229 408l66 143h426l-361 -627q183 -305 400 -614l-6 -43q-211 -47 -404 -66l-43 25q-154 279 -311 604l-4 -174l16 -430h-403l18 389l-4 213q-106 -223 -309 -602l-45 -25q-190 18 -402 66z " />
<glyph unicode="&#x417;" horiz-adv-x="1126" d="M43 33l70 325l28 17q66 -29 150 -46.5t162 -17.5q100 0 155.5 30t55.5 83q0 59 -72 92h-328l-22 29l24 274l295 -4q57 37 57 105q0 49 -36.5 67.5t-132.5 18.5q-139 0 -332 -41l-35 20l33 324q156 39 346 39q279 0 427 -93.5t148 -267.5q0 -102 -53 -181t-152 -124 q130 -37 189 -109.5t59 -189.5q0 -199 -161.5 -303.5t-462.5 -104.5q-117 0 -225.5 15.5t-186.5 42.5z" />
<glyph unicode="&#x418;" horiz-adv-x="1464" d="M121 0l20 389l-20 926l418 20l-29 -723h25l372 713h439l-23 -895l16 -430h-411l20 389l2 328h-24l-375 -717h-430z" />
<glyph unicode="&#x419;" horiz-adv-x="1464" d="M121 0l20 389l-20 926l418 20l-29 -723h25l372 713h439l-23 -895l16 -430h-411l20 389l2 328h-24l-375 -717h-430zM275 1642l201 137h39q31 -80 71.5 -108.5t120.5 -28.5q78 0 117 27.5t69 109.5h35l203 -137q-57 -109 -171 -169t-263 -60q-147 0 -256 58t-166 171z" />
<glyph unicode="&#x41a;" horiz-adv-x="1331" d="M121 0l20 389l-20 936h418l-15 -553l254 410l70 143h434l-389 -627q188 -295 430 -612l-6 -45q-215 -47 -410 -66l-45 25q-209 358 -342 608l-4 -178l17 -430h-412z" />
<glyph unicode="&#x41b;" horiz-adv-x="1353" d="M14 303q98 16 153.5 82t90.5 214.5t70 442.5l32 283h875l-23 -895l17 -430h-412l21 389l-15 633h-141l-8 -55q-53 -408 -112.5 -619t-146.5 -297t-235 -86h-100z" />
<glyph unicode="&#x41c;" horiz-adv-x="1677" d="M67 0l129 1325h473l39 -188l117 -482h25l129 467l47 203h467l106 -1325h-360l-11 401l-22 334h-25l-213 -610h-309l-176 610h-25l-28 -295l-21 -440h-342z" />
<glyph unicode="&#x41d;" horiz-adv-x="1447" d="M121 0l21 389l-21 936h418l-12 -502l207 -4l188 4l-10 502h418l-23 -895l16 -430h-411l20 389l-2 103l-221 4l-190 -7l-2 -59l16 -430h-412z" />
<glyph unicode="&#x41e;" horiz-adv-x="1370" d="M51 639q0 340 173 525.5t490 185.5q289 0 447 -171t158 -483q0 -344 -173.5 -532.5t-490.5 -188.5q-289 0 -446.5 173.5t-157.5 490.5zM481 694q0 -170 18.5 -258t62.5 -122.5t130 -34.5q80 0 121 27.5t58 98t17 203.5q0 168 -18 256t-62 123t-130 35q-80 0 -121 -27.5 t-58.5 -97.5t-17.5 -203z" />
<glyph unicode="&#x41f;" horiz-adv-x="1402" d="M121 0l20 389l-20 936h1163l-22 -895l16 -430h-412l21 389l-15 625h-342l-14 -584l17 -430h-412z" />
<glyph unicode="&#x420;" horiz-adv-x="1241" d="M121 0l20 389l-20 936l629 2q223 0 342.5 -109.5t119.5 -312.5q0 -158 -73.5 -277.5t-208.5 -186t-311 -66.5h-101l15 -375h-412zM522 670l154 -8q55 30 80.5 78t25.5 124q0 90 -43 132t-135 46l-74 -6z" />
<glyph unicode="&#x421;" horiz-adv-x="1110" d="M49 651q0 332 179 514.5t507 182.5q176 -1 332 -56l-70 -325l-27 -17q-53 29 -122.5 46.5t-128.5 17.5q-125 0 -180.5 -73t-55.5 -243q0 -199 63.5 -290t198.5 -91q57 0 128 11.5t124 31.5l33 -20l-33 -324q-123 -39 -285 -39q-330 0 -496.5 172.5t-166.5 501.5z" />
<glyph unicode="&#x422;" horiz-adv-x="1071" d="M18 1026l23 299h989l23 -29l-23 -299l-270 13h-25l-10 -580l16 -430h-409l20 389l-10 621h-27l-272 -13z" />
<glyph unicode="&#x423;" horiz-adv-x="1263" d="M-2 1325h436l58 -172l163 -448h25l143 473l39 147h398l-336 -881q-88 -193 -171 -290t-199 -137t-304 -40l-27 5q-47 147 -67 323l14 35q195 12 285 35z" />
<glyph unicode="&#x424;" horiz-adv-x="1708" d="M37 662q0 279 157.5 419t471.5 170l-2 150h383l-3 -146q627 -59 627 -559q0 -276 -159.5 -418.5t-475.5 -173.5l4 -182h-376l6 180q-633 53 -633 560zM428 680q0 -131 59.5 -195.5t194.5 -85.5l-10 555q-129 -20 -186.5 -84.5t-57.5 -189.5zM1028 395q133 19 192.5 81.5 t59.5 187.5q0 131 -56.5 198.5t-185.5 89.5l-10 -522v-35z" />
<glyph unicode="&#x425;" horiz-adv-x="1349" d="M14 1325h492l72 -166l116 -209l133 232l62 143h428l-379 -625l399 -700h-489l-70 162l-119 215l-151 -236l-66 -141h-415l393 637z" />
<glyph unicode="&#x426;" horiz-adv-x="1441" d="M121 0l20 389l-20 936h418l-23 -895l4 -98h334l2 57l-20 936h417l-22 -895l4 -98h180v-613l-297 -20l-51 301h-946z" />
<glyph unicode="&#x427;" horiz-adv-x="1290" d="M61 1325h418l-6 -432q-2 -90 32 -137t99 -47q68 0 162 53l-12 563h417l-22 -895l16 -430h-411l20 389l-2 127h-22q-92 -98 -234 -151q-219 0 -328.5 104t-113.5 317z" />
<glyph unicode="&#x428;" horiz-adv-x="1970" d="M121 0l20 389l-20 936h418l-23 -895l4 -98h275l4 57l-23 936h420l-22 -895l4 -98h274l2 57l-20 936h417l-22 -895l16 -430h-1724z" />
<glyph unicode="&#x429;" horiz-adv-x="2048" d="M121 0l20 389l-20 936h418l-23 -895l4 -98h275l4 57l-23 936h420l-22 -895l4 -98h274l2 57l-20 936h417l-22 -895l4 -98h188v-613l-297 -20l-51 301h-1552z" />
<glyph unicode="&#x42a;" horiz-adv-x="1439" d="M18 1026l23 299h702l-12 -461h250q213 0 323.5 -95t110.5 -275q0 -152 -74.5 -262.5t-215 -171t-330.5 -60.5h-467l22 387l-14 623h-96l-197 -13zM721 428l6 -139l150 -10q51 18 78.5 60t27.5 99q0 68 -37 107t-104 37l-117 -4z" />
<glyph unicode="&#x42b;" horiz-adv-x="1775" d="M94 0l23 387l-23 940h416l-12 -463h233q199 0 302.5 -95t103.5 -275q0 -152 -71 -262.5t-205 -171t-316 -60.5h-451zM487 428l7 -139l133 -10q37 18 60.5 61t23.5 98q0 66 -33 106t-86 38l-100 -4zM1239 0l21 389l-21 936h418l-23 -895l17 -430h-412z" />
<glyph unicode="&#x42c;" horiz-adv-x="1251" d="M121 0l22 387l-22 940h416l-13 -463h267q215 0 325.5 -95t110.5 -275q0 -152 -75 -262.5t-216 -171t-334 -60.5h-481zM514 428l6 -137l166 -12q53 18 81 60t28 99q0 68 -39 107t-107 37l-131 -4z" />
<glyph unicode="&#x42d;" horiz-adv-x="1187" d="M45 33l70 325l28 17q63 -29 146.5 -46.5t154.5 -17.5q115 0 173.5 45t76.5 152h-182l-254 -6l-22 28l24 299l279 -6h151q-23 100 -84 141.5t-182 41.5q-119 0 -309 -41l-35 20l33 324q170 39 342 39q346 0 514 -161t168 -493q0 -352 -185.5 -534.5t-543.5 -182.5 q-190 0 -363 56z" />
<glyph unicode="&#x42e;" horiz-adv-x="1892" d="M121 0l20 389l-20 936h418l-13 -504l76 -2l74 2q41 254 196.5 391.5t407.5 137.5q266 0 412.5 -171t146.5 -483q0 -344 -161.5 -532.5t-456.5 -188.5q-233 0 -376 135.5t-175 383.5l-86 2l-66 -4l-2 -62l16 -430h-411zM1092 694q0 -170 14 -258t49 -122.5t102 -34.5 q64 0 95.5 27.5t44 96t12.5 205.5q0 170 -14.5 257t-49 122t-102.5 35q-61 0 -93 -27.5t-45 -96.5t-13 -204z" />
<glyph unicode="&#x42f;" horiz-adv-x="1304" d="M16 96q143 168 314 404q-236 133 -236 372q0 131 69.5 235.5t193.5 163t280 58.5l547 -4l-21 -936l21 -389h-412l14 395h-137q-37 -92 -86 -197.5t-65 -138.5l-25 -51l-39 -33q-233 12 -411 76zM526 877q0 -72 29 -115t98 -76l129 10l-10 340l-94 6q-80 -4 -116 -42.5 t-36 -122.5z" />
<glyph unicode="&#x430;" horiz-adv-x="1083" d="M0 0l326 1051h458l295 -1051h-385l-22 145l-156 5l-123 -7l-22 -143h-371zM459 422l80 -2l79 2l-59 293h-22z" />
<glyph unicode="&#x431;" horiz-adv-x="1128" d="M102 0l21 305l-21 746h912l18 -25l-20 -276l-291 12h-244l-2 -84h225q187 0 284 -73t97 -214q0 -182 -146.5 -286.5t-399.5 -104.5h-433zM465 342l4 -82l139 -10q74 33 74 92q0 41 -28.5 62.5t-80.5 19.5l-106 -4z" />
<glyph unicode="&#x432;" horiz-adv-x="1118" d="M104 0l19 305l-19 746h531q197 0 306.5 -70t109.5 -205q0 -76 -43 -137t-125 -100q104 -31 150 -87.5t46 -146.5q0 -166 -145.5 -241.5t-437.5 -75.5q-133 0 -392 12zM463 344l4 -98q61 -6 102 -6q56 0 87.5 20.5t31.5 61.5q0 23 -16.5 39t-55.5 32l-151 -4zM471 635 l111 -6q41 14 58 33.5t17 56.5q0 33 -15 49t-52 22.5t-115 6.5z" />
<glyph unicode="&#x433;" horiz-adv-x="837" d="M104 0l19 307l-19 744h707l18 -25l-22 -276l-252 12h-74l-12 -418l14 -344h-379z" />
<glyph unicode="&#x434;" horiz-adv-x="1304" d="M18 -276v581h86q82 29 125 75t70 143.5t51 289.5l31 236l-2 2h762l-21 -707l2 -39h154v-563l-275 -18l-47 276h-614l-43 -258zM543 305h231v2l-12 467h-86l-4 -31q-25 -178 -54.5 -279.5t-74.5 -158.5z" />
<glyph unicode="&#x435;" horiz-adv-x="1015" d="M104 0l19 305l-19 746h828l20 -27l-22 -276l-277 12h-172l-2 -90h164l178 6l21 -27l-23 -276l-201 6h-147l-2 -35l2 -53h162l287 10l20 -25l-22 -276h-814z" />
<glyph unicode="&#x436;" horiz-adv-x="1646" d="M4 78q164 227 318 475l-285 498h391l53 -119l164 -297l-8 416h377l-13 -414l164 295l54 119h391l-285 -498q153 -248 317 -475l-4 -39q-195 -45 -372 -59l-39 22q-123 223 -230 453l-4 -111l15 -344h-371l16 307l-4 148q-72 -154 -227 -453l-41 -22q-176 14 -371 59z" />
<glyph unicode="&#x437;" horiz-adv-x="987" d="M45 14l64 295l26 17q57 -16 128 -27.5t134 -11.5q162 0 162 59q0 18 -39 41h-284l-21 27l23 252l254 -4q33 23 32 51q0 29 -26.5 37t-106.5 8q-123 0 -278 -17l-31 21l29 293q121 16 290 16q248 0 378 -75.5t130 -219.5q0 -80 -44 -141.5t-124 -95.5q105 -29 153 -84.5 t48 -147.5q0 -160 -140 -243.5t-405 -83.5q-213 0 -352 34z" />
<glyph unicode="&#x438;" horiz-adv-x="1263" d="M104 0l19 307l-19 735l385 19l-26 -500h22l273 490h403l-20 -707l14 -344h-379l19 307l2 187h-21l-274 -494h-398z" />
<glyph unicode="&#x439;" horiz-adv-x="1263" d="M104 0l19 307l-19 735l385 19l-26 -500h22l273 490h403l-20 -707l14 -344h-379l19 307l2 187h-21l-274 -494h-398zM238 1409l200 137h37q29 -80 63.5 -108.5t100.5 -28.5t97.5 26.5t62.5 110.5h32l203 -137q-53 -109 -159.5 -169t-245.5 -60q-135 0 -235.5 58t-155.5 171 z" />
<glyph unicode="&#x43a;" horiz-adv-x="1155" d="M104 0l19 305l-19 746h388l-15 -422l185 301l57 121h399l-307 -498q154 -235 342 -473l-6 -41q-199 -45 -379 -59l-43 22q-143 254 -252 459l-4 -117l16 -344h-381z" />
<glyph unicode="&#x43b;" horiz-adv-x="1165" d="M4 283q82 10 129 55t77 152.5t56 322.5l31 238h766l-21 -707l15 -344h-379l18 307l-12 467h-94l-4 -31q-45 -319 -96.5 -484t-128 -229.5t-205.5 -60.5l-93 2z" />
<glyph unicode="&#x43c;" horiz-adv-x="1439" d="M61 0l105 1051h450l27 -148l66 -311h22l76 295l37 164h440l86 -1051h-342l-2 317l-12 181h-21l-151 -408h-289l-117 408h-22l-17 -144l-12 -354h-324z" />
<glyph unicode="&#x43d;" horiz-adv-x="1249" d="M104 0l19 305l-19 746h388l-13 -379l154 -4l137 4l-10 379h387l-21 -707l15 -344h-381l18 305l-2 60l-164 4l-143 -4v-21l16 -344h-381z" />
<glyph unicode="&#x43e;" horiz-adv-x="1155" d="M37 504q0 270 148.5 418.5t418.5 148.5q246 0 380 -135t134 -383q0 -274 -148.5 -425t-418.5 -151q-246 0 -380 138.5t-134 388.5zM434 555q0 -129 12.5 -190.5t43 -84t96.5 -22.5q59 0 86.5 15.5t38 59.5t10.5 138q0 131 -11.5 192.5t-43 84t-97.5 22.5 q-57 0 -84.5 -15.5t-39 -60.5t-11.5 -139z" />
<glyph unicode="&#x43f;" horiz-adv-x="1216" d="M104 0l19 307l-19 744h1010l-20 -707l14 -344h-379l21 307l-13 459h-256l-12 -422l14 -344h-379z" />
<glyph unicode="&#x440;" horiz-adv-x="1079" d="M104 0l19 305l-19 746h562q190 0 293.5 -89.5t103.5 -252.5q0 -127 -64.5 -225.5t-181.5 -153t-268 -54.5h-76l12 -276h-381zM475 547l121 -8q37 28 52.5 57t15.5 76q0 61 -32 87.5t-104 31.5l-45 -5z" />
<glyph unicode="&#x441;" horiz-adv-x="942" d="M37 514q0 264 153.5 409.5t436.5 145.5q145 0 276 -33l-63 -301l-25 -16q-41 18 -98.5 30.5t-104.5 12.5q-94 0 -134 -45t-40 -158q0 -141 48.5 -203.5t152.5 -62.5q43 0 100.5 6t98.5 14l30 -18l-30 -299q-92 -16 -230 -16q-287 0 -429 136t-142 398z" />
<glyph unicode="&#x442;" horiz-adv-x="903" d="M8 774l21 277h843l21 -27l-21 -276l-231 12h-6l-8 -416l14 -344h-379l19 305l-9 455h-8l-233 -12z" />
<glyph unicode="&#x443;" horiz-adv-x="1079" d="M-12 1051h397l29 -97l106 -272h21l125 258l41 111h387l-402 -738l-2 -45l17 -268h-379l18 268l-2 35z" />
<glyph unicode="&#x444;" horiz-adv-x="1456" d="M23 504q0 225 133 339.5t399 139.5l-2 129h352l-2 -127q530 -49 531 -450q0 -226 -134.5 -339.5t-404.5 -138.5l4 -133h-346l6 131q-537 47 -536 449zM383 522q0 -92 43 -137t143 -59l-8 385q-94 -16 -136 -59.5t-42 -129.5zM887 322q98 12 142 53t44 129q0 92 -41 140 t-137 65l-8 -369v-18z" />
<glyph unicode="&#x445;" horiz-adv-x="1155" d="M6 1051h455l61 -146l76 -119l90 142l53 123h394l-312 -494l328 -557h-453l-59 141l-74 117l-104 -137l-58 -121h-383l324 498z" />
<glyph unicode="&#x446;" horiz-adv-x="1243" d="M102 0l19 307l-19 744h385l-20 -707l2 -39h246v2l-19 744h385l-22 -707l2 -39h151v-567l-272 -19l-49 281h-789z" />
<glyph unicode="&#x447;" horiz-adv-x="1114" d="M47 1051h385l-6 -330q-2 -131 98 -131q51 0 113 20l-10 441h385l-23 -707l17 -344h-379l18 307l-2 86h-18q-76 -74 -189 -117q-186 0 -280.5 85t-98.5 262z" />
<glyph unicode="&#x448;" horiz-adv-x="1691" d="M102 0l19 307l-19 744h385l-20 -707l2 -39h205v2l-21 744h387l-20 -707l2 -39h203v2l-19 744h385l-20 -707l14 -344h-1483z" />
<glyph unicode="&#x449;" horiz-adv-x="1740" d="M104 0l19 307l-19 744h385l-20 -707l2 -39h205v2l-21 744h387l-20 -707l2 -39h203v2l-19 744h385l-20 -707l2 -57h137v-545l-256 -18l-45 276h-1307z" />
<glyph unicode="&#x44a;" horiz-adv-x="1261" d="M29 776l20 275h615l-11 -346h207q182 0 277.5 -76t95.5 -221q0 -123 -65.5 -215.5t-186.5 -142.5t-285 -50h-415l20 305l-12 457h-74l-164 -12zM643 342l4 -78l119 -10q33 14 50.5 42t17.5 60q0 41 -28 67t-75 23l-86 -2z" />
<glyph unicode="&#x44b;" horiz-adv-x="1595" d="M82 0l20 305l-20 748h383l-10 -348h192q168 0 257 -76t89 -221q0 -186 -137 -297t-375 -111h-399zM444 342l5 -80l104 -8q20 16 33.5 44t13.5 58q0 41 -23.5 67t-58.5 23l-72 -2zM1106 0l18 305l-18 746h387l-23 -707l17 -344h-381z" />
<glyph unicode="&#x44c;" horiz-adv-x="1097" d="M102 0l21 305l-21 748h383l-10 -348h221q185 0 279 -76t94 -221q0 -123 -65.5 -215.5t-186.5 -142.5t-287 -50h-428zM465 342l4 -78l133 -10q33 14 51.5 42t18.5 60q0 41 -29 67t-78 23l-98 -4z" />
<glyph unicode="&#x44d;" horiz-adv-x="1009" d="M39 14l63 295l25 17q53 -16 122.5 -27.5t127.5 -11.5q82 0 124 20.5t58 73.5h-137l-199 -4l-20 24l22 275l221 -6h107q-18 49 -64.5 67.5t-132.5 18.5q-115 0 -254 -13l-30 19l30 291q127 18 283 18q301 -2 444.5 -127t143.5 -391q0 -283 -160 -428t-471 -145 q-152 0 -303 34z" />
<glyph unicode="&#x44e;" horiz-adv-x="1622" d="M104 0l19 307l-19 744h385l-10 -381l56 -2l59 2q39 195 171 299t343 104q225 0 350 -136t125 -382q0 -274 -139 -424.5t-391 -150.5q-193 0 -312.5 101t-152.5 288l-70 2l-49 -2v-25l14 -344h-379zM975 555q0 -133 8 -193.5t30.5 -83t73.5 -22.5q48 0 67.5 14.5 t25.5 57.5t6 143q0 133 -8.5 194.5t-32 84t-72.5 22.5q-45 0 -64.5 -15.5t-26.5 -59.5t-7 -142z" />
<glyph unicode="&#x44f;" horiz-adv-x="1134" d="M10 88q109 115 254 299q-188 113 -188 297q0 104 60.5 189t168 133.5t242.5 48.5l483 -4l-18 -744l18 -307h-379l13 293h-103q-86 -193 -129 -283l-35 -30q-215 8 -381 67zM475 686q0 -47 19.5 -74.5t72.5 -54.5l92 8l-6 226l-67 4q-62 -2 -86.5 -27t-24.5 -82z" />
<glyph unicode="&#x450;" horiz-adv-x="1015" d="M104 0l19 305l-19 746h828l20 -27l-22 -276l-277 12h-172l-2 -90h164l178 6l21 -27l-23 -276l-201 6h-147l-2 -35l2 -53h162l287 10l20 -25l-22 -276h-814zM223 1409l142 219l34 2q203 -174 412 -330l-90 -147l-35 -2q-166 76 -457 223z" />
<glyph unicode="&#x451;" horiz-adv-x="1015" d="M104 0l19 305l-19 746h828l20 -27l-22 -276l-277 12h-172l-2 -90h164l178 6l21 -27l-23 -276l-201 6h-147l-2 -35l2 -53h162l287 10l20 -25l-22 -276h-814zM143 1368q0 86 49.5 135t133.5 49q78 0 122 -44t44 -124q0 -86 -48.5 -136t-132.5 -50q-82 0 -125 44t-43 126z M539 1368q0 86 49 135t133 49q78 0 122 -44t44 -124q0 -86 -48 -136t-132 -50q-82 0 -125 44t-43 126z" />
<glyph unicode="&#x452;" horiz-adv-x="1241" d="M8 776l21 275h938l20 -25l-20 -276l-232 12h-92l-6 -174h18q74 74 189 119q194 0 277 -92.5t83 -309.5q0 -221 -83 -366.5t-273 -260.5l-139 150v29q150 119 149 385q0 86 -21.5 116.5t-76.5 30.5q-66 0 -129 -20v-25l14 -344h-379l19 307l-13 455h-45l-196 -12z" />
<glyph unicode="&#x453;" horiz-adv-x="837" d="M104 0l19 307l-19 744h707l18 -25l-22 -276l-252 12h-74l-12 -418l14 -344h-379zM209 1300q209 156 412 330l34 -2l142 -219l-6 -35q-291 -147 -457 -223l-35 2z" />
<glyph unicode="&#x454;" horiz-adv-x="1009" d="M37 498q0 285 159.5 429t471.5 144q164 0 303 -35l-64 -295l-26 -16q-53 18 -121 28.5t-127 10.5q-82 0 -124 -20.5t-60 -73.5h139l198 4l19 -25l-21 -274l-221 6h-108q20 -49 66 -67.5t132 -18.5q117 0 254 14l31 -18l-31 -293q-147 -18 -280 -18q-301 2 -445.5 127.5 t-144.5 390.5z" />
<glyph unicode="&#x455;" horiz-adv-x="942" d="M47 33l55 329l35 27q80 -63 174.5 -104t155.5 -41q49 0 49 32q0 25 -27.5 40.5t-97.5 41.5q-92 33 -155.5 68t-110.5 101.5t-47 168.5q0 106 55 191.5t161.5 134.5t254.5 49q165 0 323 -55l-55 -316l-53 -14q-72 47 -148.5 76t-119.5 29t-43 -27t29.5 -43t99.5 -43 q92 -33 154.5 -66.5t108.5 -98t46 -165.5q0 -98 -48 -182t-154.5 -137.5t-270.5 -53.5q-184 0 -371 58z" />
<glyph unicode="&#x456;" horiz-adv-x="593" d="M104 0l19 305l-19 746h388l-23 -707l16 -344h-381z" />
<glyph unicode="&#x457;" horiz-adv-x="620" d="M-14 1368q0 78 44 123t122 45q71 0 110 -40t39 -114q0 -78 -44 -123t-120 -45q-74 0 -112.5 40t-38.5 114zM109 0l18 305l-18 746h387l-23 -707l16 -344h-380zM326 1368q0 78 44 123t122 45q71 0 111 -40t40 -114q0 -78 -44 -123t-120 -45t-114.5 40t-38.5 114z" />
<glyph unicode="&#x458;" horiz-adv-x="675" d="M23 791l22 260h535l-19 -707l4 -141q0 -104 -38 -176t-125 -126.5t-240 -103.5l-105 191v28q88 35 122 76t34 109v106l-10 465l-160 -4z" />
<glyph unicode="&#x459;" horiz-adv-x="1662" d="M4 283q82 10 128 55t76 152.5t58 322.5l31 238h764l-10 -346h223q184 0 280.5 -76t96.5 -221q0 -123 -65.5 -215.5t-188.5 -142.5t-289 -50h-432l18 307l-12 467h-94l-4 -31q-47 -322 -98.5 -485.5t-126 -228t-203.5 -60.5l-93 2zM1040 344l4 -80l136 -10q34 14 53.5 42 t19.5 60q0 41 -29.5 67t-78.5 23l-103 -4z" />
<glyph unicode="&#x45a;" horiz-adv-x="1744" d="M104 0l19 307l-19 744h385l-10 -363l154 -4l137 4l-10 365h383l-10 -353h223q186 0 281.5 -73.5t95.5 -218.5q0 -123 -65.5 -215.5t-187.5 -142.5t-290 -50h-430l22 305l-4 105h-168l-139 -7l-2 -59l14 -344h-379zM1122 342l4 -78l136 -10q36 14 54.5 39.5t18.5 56.5 q0 41 -27.5 62.5t-80.5 19.5l-103 -2z" />
<glyph unicode="&#x45b;" horiz-adv-x="1253" d="M8 776l21 275h938l20 -25l-20 -276l-232 12h-94l-6 -174h18q76 76 191 119q188 0 273 -92.5t85 -295.5l12 -319h-376l18 258q0 72 -22.5 101.5t-79.5 29.5q-61 0 -125 -18v-27l14 -344h-379l19 307l-13 455h-43l-196 -12z" />
<glyph unicode="&#x45c;" horiz-adv-x="1155" d="M104 0l19 305l-19 746h388l-15 -422l185 301l57 121h399l-307 -498q154 -235 342 -473l-6 -41q-199 -45 -379 -59l-43 22q-143 254 -252 459l-4 -117l16 -344h-381zM285 1300q209 156 411 330l35 -2l141 -219l-6 -35q-291 -147 -456 -223l-35 2z" />
<glyph unicode="&#x45d;" horiz-adv-x="1263" d="M104 0l19 307l-19 735l385 19l-26 -500h22l273 490h403l-20 -707l14 -344h-379l19 307l2 187h-21l-274 -494h-398zM344 1409l141 219l35 2q203 -174 412 -330l-90 -147l-35 -2q-166 76 -457 223z" />
<glyph unicode="&#x45e;" horiz-adv-x="1079" d="M-12 1051h397l29 -97l106 -272h21l125 258l41 111h387l-402 -738l-2 -45l17 -268h-379l18 268l-2 35zM145 1409l201 137h37q29 -80 63.5 -108.5t100.5 -28.5t97.5 26.5t62.5 110.5h32l203 -137q-53 -109 -159.5 -169t-245.5 -60q-136 0 -236 58t-156 171z" />
<glyph unicode="&#x45f;" horiz-adv-x="1200" d="M102 0l19 307l-19 744h385l-20 -707l2 -59h262l2 22l-18 744h385l-21 -707l15 -344h-336l-29 -299l-268 -18l-31 317h-328z" />
<glyph unicode="&#x462;" horiz-adv-x="1458" d="M16 969l23 276h291l-4 189h415l-4 -189h387l23 -26l-23 -277l-311 12h-82l-4 -168h270q215 0 328 -87t113 -250q0 -137 -76 -238.5t-217 -156t-336 -54.5h-483l22 387l-12 567h-23l-272 -12zM719 428l6 -164l168 -10q55 16 84 54t29 91q0 61 -39 96t-109 33l-137 -4z" />
<glyph unicode="&#x463;" horiz-adv-x="1241" d="M6 737l21 254h239l-4 144h383l-4 -144h320l20 -22l-20 -254l-271 10h-55l-2 -88h225q184 0 280.5 -69.5t96.5 -200.5q0 -109 -65.5 -192t-188.5 -129t-289 -46h-430l21 305l-11 420h-10l-233 -10zM625 342l4 -102l135 -9q35 15 54.5 39.5t19.5 51.5q0 37 -30 59t-79 20 l-102 -2z" />
<glyph unicode="&#x46a;" horiz-adv-x="1892" d="M-4 84q92 121 266 358q90 125 149.5 185.5t131.5 89.5l-332 330v278h1472v-278l-331 -330q72 -29 130 -89.5t148 -185.5q174 -237 266 -358l-6 -43q-233 -47 -403 -66l-43 25q-51 78 -207 348q-31 53 -51.5 73.5t-55.5 29.5v-21l17 -430h-404l19 389l-2 60 q-37 -8 -57.5 -29t-47.5 -72q-53 -104 -206 -348l-46 -25q-197 18 -401 66zM659 1036l254 -276h33h33l254 276h-574z" />
<glyph unicode="&#x46b;" horiz-adv-x="1615" d="M-14 78q141 174 211 266q78 104 129 155.5t112 78.5l-260 217v256h1262v-256l-262 -220q61 -27 111 -76.5t132 -154.5q4 -4 39 -51q115 -150 170 -215l-6 -39q-215 -45 -373 -59l-39 22q-33 47 -153 252q-25 41 -40 57.5t-42 22.5l16 -334h-372l18 307v25 q-29 -8 -44 -23.5t-36 -54.5q-20 -37 -106 -172l-50 -80l-41 -22q-186 14 -370 59zM590 786l182 -170h37h37l180 170h-436z" />
<glyph unicode="&#x472;" horiz-adv-x="1423" d="M47 639q0 221 83 381t239.5 245t371.5 85q197 0 340.5 -78t219 -225.5t75.5 -350.5q0 -223 -83 -386t-239.5 -249t-371.5 -86q-197 0 -340 80t-219 229.5t-76 354.5zM467 793l481 6q-18 123 -74.5 173t-168.5 50q-117 0 -171.5 -51t-66.5 -178zM473 512 q16 -129 72.5 -181t173.5 -52q115 0 170 55t67 184z" />
<glyph unicode="&#x473;" horiz-adv-x="1206" d="M35 504q0 266 158.5 417.5t437.5 151.5q254 0 398.5 -138t144.5 -380q0 -268 -159 -421.5t-437 -153.5q-254 0 -398.5 140t-144.5 384zM424 645l352 4q-16 70 -58 96.5t-122 26.5q-84 0 -123 -27.5t-49 -99.5zM430 389q14 -76 55 -104.5t127 -28.5q82 0 123 30.5 t51 104.5z" />
<glyph unicode="&#x474;" horiz-adv-x="1277" d="M14 1325h416l37 -219l141 -739h23l166 653q33 125 81 192.5t125.5 97t208.5 29.5l52 -301l-15 -30q-61 -4 -91 -36t-56 -120l-242 -852h-495z" />
<glyph unicode="&#x475;" horiz-adv-x="1077" d="M6 1051h383l31 -193l94 -524h21l118 461q27 104 69 161.5t112.5 82t189.5 26.5l47 -277l-14 -28q-53 -4 -78 -28.5t-45 -92.5l-189 -639h-456z" />
<glyph unicode="&#x490;" horiz-adv-x="1017" d="M121 0l20 389l-20 936h561l61 250l265 -16l-33 -562l-297 13h-148l-14 -580l16 -430h-411z" />
<glyph unicode="&#x491;" horiz-adv-x="878" d="M104 0l19 307l-19 744h474l53 204l241 -14l-28 -491l-250 12h-113l-12 -418l14 -344h-379z" />
<glyph unicode="&#x492;" horiz-adv-x="1040" d="M43 528l12 187h782l14 -21l-9 -186h-784zM143 0l21 389l-21 936h817l21 -29l-25 -299l-297 13h-106l-14 -580l16 -430h-412z" />
<glyph unicode="&#x493;" horiz-adv-x="944" d="M0 354l10 187h170l-12 510h706l19 -25l-23 -276l-252 12h-73l-6 -221h254l14 -21l-8 -186h-267l15 -334h-379l18 307v27h-172z" />
<glyph unicode="&#x494;" horiz-adv-x="1251" d="M121 0l20 389l-20 936h889l20 -29l-24 -299l-283 13h-193l-6 -273h21q92 98 233 152q156 0 247 -49t133 -159t42 -294q0 -279 -95 -463t-312 -327l-152 161v33q184 168 184 524q0 129 -28.5 178.5t-102.5 49.5q-80 0 -176 -58l-2 -55l16 -430h-411z" />
<glyph unicode="&#x495;" horiz-adv-x="1079" d="M104 0l19 307l-19 744h773l18 -25l-23 -276l-237 12h-154l-6 -174h19q74 74 188 119q195 0 276.5 -91.5t81.5 -310.5q0 -223 -83 -367.5t-273 -259.5l-137 150v29q150 119 149 385q0 86 -21.5 116.5t-76.5 30.5q-66 0 -129 -20v-25l14 -344h-379z" />
<glyph unicode="&#x496;" horiz-adv-x="2080" d="M10 84q217 309 400 614l-361 627h426l66 -143l227 -406l-10 549h409l-14 -551l229 408l66 143h426l-361 -627q106 -178 232 -366h309v-613l-297 -20l-49 287l-205 -9l-43 23q-154 279 -311 604l-4 -174l16 -430h-403l18 389l-4 213q-106 -223 -309 -602l-45 -25 q-190 18 -402 66z" />
<glyph unicode="&#x497;" horiz-adv-x="1785" d="M4 78q164 227 318 475l-285 498h391l53 -119l164 -297l-8 416h377l-13 -414l164 295l54 119h391l-285 -498q96 -154 160 -246l282 -2v-563l-272 -18l-47 264l-182 -8l-39 20q-125 229 -230 455l-4 -111l15 -344h-371l16 307l-4 148q-72 -154 -227 -453l-41 -22 q-176 14 -371 59z" />
<glyph unicode="&#x498;" horiz-adv-x="1126" d="M43 33l70 325l28 17q66 -29 150 -46.5t162 -17.5q100 0 155.5 30t55.5 83q0 59 -72 92h-328l-22 29l24 274l295 -4q57 37 57 105q0 49 -36.5 67.5t-132.5 18.5q-139 0 -332 -41l-35 20l33 324q156 39 346 39q279 0 427 -93.5t148 -267.5q0 -102 -53 -181t-152 -124 q129 -37 188.5 -109.5t59.5 -189.5q0 -143 -87 -239.5t-253 -137.5l-32 -328l-297 -20l-33 319q-203 10 -334 56z" />
<glyph unicode="&#x499;" horiz-adv-x="972" d="M45 14l64 295l26 17q57 -16 128 -27.5t134 -11.5q162 0 162 59q0 18 -39 41h-284l-21 27l23 252l254 -4q33 23 32 51q0 29 -26.5 37t-106.5 8q-123 0 -278 -17l-31 21l29 293q121 16 290 16q248 0 378 -75.5t130 -219.5q0 -80 -44 -141.5t-124 -95.5q104 -29 152.5 -84.5 t48.5 -147.5q0 -117 -74.5 -193.5t-220.5 -109.5l-29 -303l-268 -18l-28 299q-158 2 -277 32z" />
<glyph unicode="&#x49a;" horiz-adv-x="1472" d="M121 0l20 389l-20 936h418l-15 -553l254 410l70 143h434l-389 -627q137 -213 248 -366h305v-613l-297 -20l-49 287l-193 -9l-45 3q-125 215 -342 628l-4 -178l16 -430h-411z" />
<glyph unicode="&#x49b;" horiz-adv-x="1222" d="M104 0l19 307l-19 744h385l-12 -418l185 299l55 119h399l-307 -498q90 -139 186 -266h203v-545l-258 -18l-47 262l-125 -6h-41q-96 168 -254 479l-4 -115l14 -344h-379z" />
<glyph unicode="&#x49c;" horiz-adv-x="1554" d="M121 0l20 389l-20 936h418l-13 -489h82v282l187 12l20 -16v-278h41l186 346l62 143h403l-342 -627q162 -288 375 -612l-6 -45q-170 -43 -379 -66l-39 25q-131 260 -256 524h-45v-272l-186 -10l-21 16v266h-90l-2 -94l16 -430h-411z" />
<glyph unicode="&#x49d;" horiz-adv-x="1357" d="M104 0l19 307l-19 744h385l-10 -373h64v223l172 10l18 -14v-219h31l137 254l51 119h369l-272 -498q108 -184 301 -473l-7 -41q-158 -41 -350 -59l-35 22l-190 391h-35v-209l-170 -10l-20 14v205h-72l-2 -49l14 -344h-379z" />
<glyph unicode="&#x4a0;" horiz-adv-x="1538" d="M16 1026l23 299h706l-14 -553l254 410l70 143h434l-389 -627q188 -295 430 -612l-6 -45q-215 -47 -410 -66l-45 25q-209 358 -342 608l-4 -178l16 -430h-411l20 389l-14 621h-21l-272 -13z" />
<glyph unicode="&#x4a1;" horiz-adv-x="1308" d="M8 776l21 275h616l-12 -420l184 301l57 119h398l-307 -498q141 -213 342 -473l-4 -41q-199 -45 -379 -59l-41 22q-137 238 -254 461l-4 -119l16 -344h-381l21 307l-13 455h-4l-233 -12z" />
<glyph unicode="&#x4a2;" horiz-adv-x="1546" d="M121 0l20 389l-20 936h418l-13 -502l207 -4l189 4l-11 502h418l-22 -895l4 -98h209v-613l-297 -20l-52 301h-260l21 389l-2 103l-221 4l-191 -7l-2 -59l16 -430h-411z" />
<glyph unicode="&#x4a3;" horiz-adv-x="1308" d="M104 0l19 305l-19 746h388l-13 -379l154 -4l137 4l-10 379h387l-21 -707l2 -57h150v-545l-256 -18l-45 276h-217l18 305l-2 60l-164 4l-143 -4v-21l16 -344h-381z" />
<glyph unicode="&#x4a4;" horiz-adv-x="1806" d="M121 0l20 389l-20 936h418l-13 -502l207 -4l189 4l-11 502h854l23 -29l-23 -299l-270 13h-174l-14 -580l16 -430h-412l21 389l-2 103l-221 4l-191 -7l-2 -59l16 -430h-411z" />
<glyph unicode="&#x4a5;" horiz-adv-x="1527" d="M104 0l19 307l-19 744h385l-10 -379l154 -4l137 4l-10 379h739l21 -25l-19 -276l-233 12h-131l-13 -418l15 -344h-379l20 307l-2 60l-168 4l-141 -6v-21l14 -344h-379z" />
<glyph unicode="&#x4aa;" horiz-adv-x="1110" d="M49 651q0 332 179.5 514.5t506.5 182.5q176 0 332 -56l-70 -325l-26 -17q-53 29 -123 46.5t-129 17.5q-125 0 -180.5 -73t-55.5 -243q0 -199 63.5 -290t198.5 -91q58 0 128.5 11.5t123.5 31.5l33 -20l-33 -324q-74 -25 -149 -30l-31 -308l-297 -20l-35 344 q-217 53 -326.5 218t-109.5 431z" />
<glyph unicode="&#x4ab;" horiz-adv-x="942" d="M37 514q0 264 153.5 409.5t436.5 145.5q145 0 276 -33l-63 -301l-25 -16q-41 18 -98.5 30.5t-104.5 12.5q-94 0 -134 -45t-40 -158q0 -141 48.5 -203.5t152.5 -62.5q43 0 100.5 6t98.5 14l30 -18l-30 -299q-35 -6 -115 -14l-27 -281l-268 -18l-31 319q-180 45 -270 175 t-90 337z" />
<glyph unicode="&#x4ae;" horiz-adv-x="1271" d="M0 1325h430l32 -111l150 -399h25l172 385l47 125h417l-471 -899l-4 -78l17 -348h-410l21 348l-2 64z" />
<glyph unicode="&#x4af;" horiz-adv-x="1079" d="M-12 1051h397l29 -97l106 -272h21l125 258l41 111h387l-402 -738l-2 -45l17 -268h-379l18 268l-2 35z" />
<glyph unicode="&#x4b0;" horiz-adv-x="1216" d="M-16 1325h430l32 -111l150 -399h25l172 385l47 125h417l-471 -899l-4 -78l17 -348h-410l21 348l-2 64zM143 278l13 187h860l16 -21l-10 -186h-862z" />
<glyph unicode="&#x4b1;" horiz-adv-x="1075" d="M-6 1051h397l29 -97l106 -272h21l125 258l41 111h387l-367 -676h195l14 -21l-8 -186h-232l11 -168h-379l12 168h-231l-17 20l13 187h206z" />
<glyph unicode="&#x4b2;" horiz-adv-x="1482" d="M14 1325h492l72 -166l116 -209l133 232l62 143h428l-379 -625l211 -368h307v-613l-297 -20l-51 301h-260l-70 162l-119 215l-151 -236l-66 -141h-415l393 637z" />
<glyph unicode="&#x4b3;" horiz-adv-x="1275" d="M6 1051h453l61 -146l76 -119l92 142l53 123h394l-314 -494l148 -252h284v-563l-272 -18l-47 276h-236l-59 139l-74 121l-106 -139l-58 -121h-381l324 498z" />
<glyph unicode="&#x4b6;" horiz-adv-x="1388" d="M61 1325h418l-6 -432q-2 -90 32 -137t99 -47q68 0 162 53l-12 563h417l-22 -895l4 -98h209v-613l-297 -20l-51 301h-260l20 389l-2 127h-22q-92 -98 -234 -151q-219 0 -328.5 104t-113.5 317z" />
<glyph unicode="&#x4b7;" horiz-adv-x="1173" d="M47 1051h385l-6 -330q-2 -131 98 -131q51 0 113 20l-10 441h385l-23 -707l2 -57h154v-545l-256 -18l-45 276h-217l18 307l-2 86h-18q-76 -74 -189 -117q-186 0 -280.5 85t-98.5 262z" />
<glyph unicode="&#x4b8;" horiz-adv-x="1400" d="M61 1325h418l-6 -432q-2 -137 102 -174v328l187 12l20 -17v-313q37 10 95 35l-11 561h416l-22 -895l16 -430h-410l19 389l-2 127h-23q-41 -35 -78 -55v-260l-184 -11l-23 17v160l-8 -2q-246 0 -367.5 104t-125.5 317z" />
<glyph unicode="&#x4b9;" horiz-adv-x="1212" d="M45 1051h385l-6 -330q-2 -90 65 -119v242l170 12l19 -14v-242q18 2 59 10l-10 441h383l-23 -707l17 -344h-377l16 307l-2 86h-18q-29 -20 -45 -28v-218l-168 -10l-21 15v129l-10 -5q-211 0 -315.5 85t-108.5 262z" />
<glyph unicode="&#x4ba;" horiz-adv-x="1277" d="M121 0l20 389l-20 936h418l-13 -514h21q92 98 233 152q221 0 321.5 -111t100.5 -352l15 -500h-410l20 430q0 98 -31.5 142t-103.5 44q-80 0 -172 -55l-4 -131l16 -430h-411z" />
<glyph unicode="&#x4bb;" horiz-adv-x="1249" d="M104 0l19 305l-19 746h388l-13 -379l154 -4l137 4l-10 379h387l-21 -707l15 -344h-381l18 305l-2 60l-164 4l-143 -4v-21l16 -344h-381z" />
<glyph unicode="&#x4c0;" horiz-adv-x="657" d="M121 0l20 389l-20 936h418l-23 -895l17 -430h-412z" />
<glyph unicode="&#x4c1;" horiz-adv-x="1923" d="M10 84q217 309 400 614l-361 627h426l66 -143l227 -406l-10 549h409l-14 -551l229 408l66 143h426l-361 -627q183 -305 400 -614l-6 -43q-211 -47 -404 -66l-43 25q-154 279 -311 604l-4 -174l16 -430h-403l18 389l-4 213q-106 -223 -309 -602l-45 -25q-190 18 -402 66z M500 1642l201 137h39q31 -80 71.5 -108.5t120.5 -28.5q78 0 117 27.5t69 109.5h35l203 -137q-57 -109 -171 -169t-263 -60q-147 0 -256 58t-166 171z" />
<glyph unicode="&#x4c2;" horiz-adv-x="1646" d="M4 78q164 227 318 475l-285 498h391l53 -119l164 -297l-8 416h377l-13 -414l164 295l54 119h391l-285 -498q153 -248 317 -475l-4 -39q-195 -45 -372 -59l-39 22q-123 223 -230 453l-4 -111l15 -344h-371l16 307l-4 148q-72 -154 -227 -453l-41 -22q-176 14 -371 59z M426 1409l201 137h37q29 -80 63.5 -108.5t99.5 -28.5q66 0 97.5 26.5t62.5 110.5h33l203 -137q-53 -109 -160 -169t-246 -60q-135 0 -235.5 58t-155.5 171z" />
<glyph unicode="&#x4cb;" horiz-adv-x="1290" d="M61 1325h418l-6 -432q-2 -90 32 -137t99 -47q68 0 162 53l-12 563h417l-22 -895l16 -430h-233l-47 -281l-303 -20v633h190l2 57l-2 127h-22q-92 -98 -234 -151q-219 0 -328.5 104t-113.5 317z" />
<glyph unicode="&#x4cc;" horiz-adv-x="1112" d="M45 1051h385l-6 -310q-2 -131 98 -131q51 0 113 21l-10 420h385l-23 -707l17 -344h-195l-47 -258l-279 -18v540h156l4 64l-2 86h-18q-76 -74 -189 -117q-186 0 -280.5 85t-98.5 261z" />
<glyph unicode="&#x4cf;" horiz-adv-x="593" d="M104 0l19 305l-19 746h388l-23 -707l16 -344h-381z" />
<glyph unicode="&#x4d0;" horiz-adv-x="1282" d="M10 0l402 1325h495l363 -1325h-416l-37 219l-2 6l-201 4l-168 -8l-34 -221h-402zM189 1642l201 137h39q31 -80 71.5 -108.5t120.5 -28.5q78 0 117 27.5t69 109.5h35l203 -137q-57 -109 -171 -169t-263 -60q-147 0 -256 58t-166 171zM524 524l115 -2l115 2l-91 434h-24z " />
<glyph unicode="&#x4d1;" horiz-adv-x="1083" d="M0 0l326 1051h458l295 -1051h-385l-22 145l-156 5l-123 -7l-22 -143h-371zM164 1409l201 137h36q29 -80 64 -108.5t100 -28.5q66 0 97.5 26.5t62.5 110.5h33l203 -137q-53 -109 -160 -169t-246 -60q-135 0 -235.5 58t-155.5 171zM459 422l80 -2l79 2l-59 293h-22z" />
<glyph unicode="&#x4d2;" horiz-adv-x="1282" d="M10 0l402 1325h495l363 -1325h-416l-37 219l-2 6l-201 4l-168 -8l-34 -221h-402zM279 1642q0 86 49 135t133 49q78 0 122 -44t44 -124q0 -86 -48 -136t-132 -50q-82 0 -125 44t-43 126zM524 524l115 -2l115 2l-91 434h-24zM674 1642q0 86 49.5 135t133.5 49q77 0 121 -44 t44 -124q0 -86 -48 -136t-132 -50q-82 0 -125 44t-43 126z" />
<glyph unicode="&#x4d3;" horiz-adv-x="1083" d="M0 0l326 1051h458l295 -1051h-385l-22 145l-156 5l-123 -7l-22 -143h-371zM190 1368q0 86 49.5 135t133.5 49q78 0 122 -44t44 -124q0 -86 -48.5 -136t-132.5 -50q-82 0 -125 44t-43 126zM459 422l80 -2l79 2l-59 293h-22zM586 1368q0 86 49 135t133 49q78 0 122 -44 t44 -124q0 -86 -48 -136t-132 -50q-82 0 -125 44t-43 126z" />
<glyph unicode="&#x4d4;" horiz-adv-x="1792" d="M2 0l565 1325h1065l23 -29l-27 -299l-305 13h-156l17 -234l346 111l29 -23l36 -282l-389 -113l11 -154h186l338 13l22 -29l-24 -299h-893l-10 219l-11 135l-350 -106l-2 -4l-70 -244h-401zM612 602l187 57l-25 299h-24z" />
<glyph unicode="&#x4d5;" horiz-adv-x="1513" d="M-12 0l487 1049h901l21 -27l-23 -250l-264 12h-131l14 -166l299 91l23 -21l31 -235l-332 -91l8 -98h160l288 10l21 -24l-23 -250h-757l-9 180l-8 90l-319 -94l-49 -176h-338zM508 475l162 49l-21 217h-22z" />
<glyph unicode="&#x4d6;" horiz-adv-x="1157" d="M121 0l20 389l-20 936h950l23 -29l-27 -299l-326 13h-211l-4 -187h203l213 6l23 -28l-25 -299l-237 6h-185l-2 -78l4 -115h197l340 13l22 -29l-24 -299h-934zM133 1642l201 137h39q31 -80 71.5 -108.5t120.5 -28.5q78 0 117 27.5t69 109.5h35l203 -137 q-57 -109 -171 -169t-263 -60q-147 0 -256 58t-166 171z" />
<glyph unicode="&#x4d7;" horiz-adv-x="1015" d="M104 0l19 305l-19 746h828l20 -27l-22 -276l-277 12h-172l-2 -90h164l178 6l21 -27l-23 -276l-201 6h-147l-2 -35l2 -53h162l287 10l20 -25l-22 -276h-814zM117 1409l200 137h37q29 -80 64 -108.5t100 -28.5q66 0 97.5 26.5t62.5 110.5h33l202 -137q-53 -109 -159.5 -169 t-245.5 -60q-135 0 -235.5 58t-155.5 171z" />
<glyph unicode="&#x4d8;" horiz-adv-x="1329" d="M43 504q0 70 16 172l51 63l758 6q-16 143 -90 208t-217 65q-170 0 -414 -86l-37 26l74 316q201 70 406 69q215 0 370.5 -80.5t238.5 -235.5t83 -368q0 -209 -80 -362.5t-228.5 -236.5t-351.5 -83q-174 0 -306 68t-202.5 187.5t-70.5 271.5zM430 461q0 -84 54 -136.5 t147 -52.5q100 0 158.5 59.5t76.5 180.5l-432 -12z" />
<glyph unicode="&#x4d9;" horiz-adv-x="1128" d="M35 408q0 49 14 145l47 57l611 6q-18 80 -72.5 114t-159.5 34q-135 0 -350 -57l-33 22l70 287q162 49 340 49q276 0 435 -144.5t159 -400.5q0 -252 -150.5 -396t-413.5 -144q-150 0 -263 56t-173.5 153.5t-60.5 218.5zM395 369q0 -49 39 -83t107 -34q73 0 115 38t55 118 l-312 -9z" />
<glyph unicode="&#x4dc;" horiz-adv-x="1923" d="M10 84q217 309 400 614l-361 627h426l66 -143l227 -406l-10 549h409l-14 -551l229 408l66 143h426l-361 -627q183 -305 400 -614l-6 -43q-211 -47 -404 -66l-43 25q-154 279 -311 604l-4 -174l16 -430h-403l18 389l-4 213q-106 -223 -309 -602l-45 -25q-190 18 -402 66z M590 1642q0 86 49 135t133 49q78 0 122 -44t44 -124q0 -86 -48 -136t-132 -50q-82 0 -125 44t-43 126zM985 1642q0 86 49.5 135t133.5 49q77 0 121 -44t44 -124q0 -86 -48 -136t-132 -50q-82 0 -125 44t-43 126z" />
<glyph unicode="&#x4dd;" horiz-adv-x="1646" d="M4 78q164 227 318 475l-285 498h391l53 -119l164 -297l-8 416h377l-13 -414l164 295l54 119h391l-285 -498q153 -248 317 -475l-4 -39q-195 -45 -372 -59l-39 22q-123 223 -230 453l-4 -111l15 -344h-371l16 307l-4 148q-72 -154 -227 -453l-41 -22q-176 14 -371 59z M453 1368q0 86 49 135t133 49q78 0 122 -44t44 -124q0 -86 -48 -136t-132 -50q-82 0 -125 44t-43 126zM848 1368q0 86 49 135t133 49q78 0 122 -44t44 -124q0 -86 -48 -136t-132 -50q-82 0 -125 44t-43 126z" />
<glyph unicode="&#x4de;" horiz-adv-x="1126" d="M43 33l70 325l28 17q66 -29 150 -46.5t162 -17.5q100 0 155.5 30t55.5 83q0 59 -72 92h-328l-22 29l24 274l295 -4q57 37 57 105q0 49 -36.5 67.5t-132.5 18.5q-139 0 -332 -41l-35 20l33 324q156 39 346 39q279 0 427 -93.5t148 -267.5q0 -102 -53 -181t-152 -124 q130 -37 189 -109.5t59 -189.5q0 -199 -161.5 -303.5t-462.5 -104.5q-117 0 -225.5 15.5t-186.5 42.5zM190 1642q0 86 49 135t133 49q78 0 122 -44t44 -124q0 -86 -48 -136t-132 -50q-82 0 -125 44t-43 126zM585 1642q0 86 49.5 135t133.5 49q77 0 121 -44t44 -124 q0 -86 -48 -136t-132 -50q-82 0 -125 44t-43 126z" />
<glyph unicode="&#x4df;" horiz-adv-x="987" d="M45 14l64 295l26 17q57 -16 128 -27.5t134 -11.5q162 0 162 59q0 18 -39 41h-284l-21 27l23 252l254 -4q33 23 32 51q0 29 -26.5 37t-106.5 8q-123 0 -278 -17l-31 21l29 293q121 16 290 16q248 0 378 -75.5t130 -219.5q0 -80 -44 -141.5t-124 -95.5q105 -29 153 -84.5 t48 -147.5q0 -160 -140 -243.5t-405 -83.5q-213 0 -352 34zM121 1368q0 86 49 135t133 49q78 0 122 -44t44 -124q0 -86 -48 -136t-132 -50q-82 0 -125 44t-43 126zM516 1368q0 86 49 135t133 49q78 0 122 -44t44 -124q0 -86 -48 -136t-132 -50q-82 0 -125 44t-43 126z" />
<glyph unicode="&#x4e2;" horiz-adv-x="1464" d="M121 0l20 389l-20 926l418 20l-29 -723h25l372 713h439l-23 -895l16 -430h-411l20 389l2 328h-24l-375 -717h-430zM433 1554l18 219h565l25 -26l-19 -220h-565z" />
<glyph unicode="&#x4e3;" horiz-adv-x="1263" d="M104 0l19 307l-19 735l385 19l-26 -500h22l273 490h403l-20 -707l14 -344h-379l19 307l2 187h-21l-274 -494h-398zM334 1280l18 219h566l24 -26l-18 -220h-566z" />
<glyph unicode="&#x4e4;" horiz-adv-x="1464" d="M121 0l20 389l-20 926l418 20l-29 -723h25l372 713h439l-23 -895l16 -430h-411l20 389l2 328h-24l-375 -717h-430zM365 1642q0 86 49 135t133 49q78 0 122 -44t44 -124q0 -86 -48 -136t-132 -50q-82 0 -125 44t-43 126zM760 1642q0 86 49.5 135t133.5 49q77 0 121 -44 t44 -124q0 -86 -48 -136t-132 -50q-82 0 -125 44t-43 126z" />
<glyph unicode="&#x4e5;" horiz-adv-x="1263" d="M104 0l19 307l-19 735l385 19l-26 -500h22l273 490h403l-20 -707l14 -344h-379l19 307l2 187h-21l-274 -494h-398zM264 1368q0 86 49 135t133 49q78 0 122 -44t44 -124q0 -86 -48 -136t-132 -50q-82 0 -125 44t-43 126zM659 1368q0 86 49.5 135t133.5 49q78 0 122 -44 t44 -124q0 -86 -48.5 -136t-132.5 -50q-82 0 -125 44t-43 126z" />
<glyph unicode="&#x4e6;" horiz-adv-x="1370" d="M51 639q0 340 173 525.5t490 185.5q289 0 447 -171t158 -483q0 -344 -173.5 -532.5t-490.5 -188.5q-289 0 -446.5 173.5t-157.5 490.5zM313 1642q0 86 49 135t133 49q78 0 122 -44t44 -124q0 -86 -48 -136t-132 -50q-82 0 -125 44t-43 126zM481 694q0 -170 18.5 -258 t62.5 -122.5t130 -34.5q80 0 121 27.5t58 98t17 203.5q0 168 -18 256t-62 123t-130 35q-80 0 -121 -27.5t-58.5 -97.5t-17.5 -203zM708 1642q0 86 49.5 135t133.5 49q77 0 121 -44t44 -124q0 -86 -48 -136t-132 -50q-82 0 -125 44t-43 126z" />
<glyph unicode="&#x4e7;" horiz-adv-x="1155" d="M37 504q0 270 148.5 418.5t418.5 148.5q246 0 380 -135t134 -383q0 -274 -148.5 -425t-418.5 -151q-246 0 -380 138.5t-134 388.5zM209 1368q0 86 49 135t133 49q78 0 122 -44t44 -124q0 -86 -48 -136t-132 -50q-82 0 -125 44t-43 126zM434 555q0 -129 12.5 -190.5 t43 -84t96.5 -22.5q59 0 86.5 15.5t38 59.5t10.5 138q0 131 -11.5 192.5t-43 84t-97.5 22.5q-57 0 -84.5 -15.5t-39 -60.5t-11.5 -139zM604 1368q0 86 49 135t133 49q78 0 122 -44t44 -124q0 -86 -48 -136t-132 -50q-82 0 -125 44t-43 126z" />
<glyph unicode="&#x4e8;" horiz-adv-x="1423" d="M47 639q0 221 83 381t239.5 245t371.5 85q197 0 340.5 -78t219 -225.5t75.5 -350.5q0 -223 -83 -386t-239.5 -249t-371.5 -86q-197 0 -340 80t-219 229.5t-76 354.5zM467 793l481 6q-18 123 -74.5 173t-168.5 50q-117 0 -171.5 -51t-66.5 -178zM473 512 q16 -129 72.5 -181t173.5 -52q115 0 170 55t67 184z" />
<glyph unicode="&#x4e9;" horiz-adv-x="1206" d="M35 504q0 266 158.5 417.5t437.5 151.5q254 0 398.5 -138t144.5 -380q0 -268 -159 -421.5t-437 -153.5q-254 0 -398.5 140t-144.5 384zM424 645l352 4q-16 70 -58 96.5t-122 26.5q-84 0 -123 -27.5t-49 -99.5zM430 389q14 -76 55 -104.5t127 -28.5q82 0 123 30.5 t51 104.5z" />
<glyph unicode="&#x4ee;" horiz-adv-x="1263" d="M-2 1325h436l58 -172l163 -448h25l143 473l39 147h398l-336 -881q-88 -193 -171 -290t-199 -137t-304 -40l-27 5q-47 147 -67 323l14 35q195 12 285 35zM328 1554l18 219h565l25 -26l-19 -220h-565z" />
<glyph unicode="&#x4ef;" horiz-adv-x="1079" d="M-12 1051h397l29 -97l106 -272h21l125 258l41 111h387l-402 -738l-2 -45l17 -268h-379l18 268l-2 35zM242 1280l18 219h565l25 -26l-19 -220h-565z" />
<glyph unicode="&#x4f0;" horiz-adv-x="1263" d="M-2 1325h436l58 -172l163 -448h25l143 473l39 147h398l-336 -881q-88 -193 -171 -290t-199 -137t-304 -40l-27 5q-47 147 -67 323l14 35q195 12 285 35zM260 1642q0 86 49 135t133 49q78 0 122 -44t44 -124q0 -86 -48 -136t-132 -50q-82 0 -125 44t-43 126zM655 1642 q0 86 49.5 135t133.5 49q77 0 121 -44t44 -124q0 -86 -48 -136t-132 -50q-82 0 -125 44t-43 126z" />
<glyph unicode="&#x4f1;" horiz-adv-x="1079" d="M-12 1051h397l29 -97l106 -272h21l125 258l41 111h387l-402 -738l-2 -45l17 -268h-379l18 268l-2 35zM172 1368q0 86 49 135t133 49q78 0 122 -44t44 -124q0 -86 -48 -136t-132 -50q-82 0 -125 44t-43 126zM567 1368q0 86 49.5 135t133.5 49q78 0 121.5 -44t43.5 -124 q0 -86 -48 -136t-132 -50q-82 0 -125 44t-43 126z" />
<glyph unicode="&#x4f2;" horiz-adv-x="1263" d="M-2 1325h436l58 -172l163 -448h25l143 473l39 147h398l-336 -881q-88 -193 -171 -290t-199 -137t-304 -40l-27 5q-47 147 -67 323l14 35q195 12 285 35zM310 1550q139 201 202 305l29 8l184 -119l7 -28q-131 -131 -269 -250l-33 -10zM656 1550l47 70q74 109 156 235l26 8 l187 -119l6 -28q-141 -137 -271 -250l-30 -10z" />
<glyph unicode="&#x4f3;" horiz-adv-x="1079" d="M-12 1051h397l29 -97l106 -272h21l125 258l41 111h387l-402 -738l-2 -45l17 -268h-379l18 268l-2 35zM203 1247q121 195 229 391l27 9l184 -129l6 -29q-127 -150 -297 -326l-30 -10zM541 1247q121 195 229 391l27 9l184 -129l6 -29q-127 -150 -297 -326l-31 -10z" />
<glyph unicode="&#x4f4;" horiz-adv-x="1290" d="M61 1325h418l-6 -432q-2 -90 32 -137t99 -47q68 0 162 53l-12 563h417l-22 -895l16 -430h-411l20 389l-2 127h-22q-92 -98 -234 -151q-219 0 -328.5 104t-113.5 317zM240 1642q0 86 49 135t133 49q78 0 122 -44t44 -124q0 -86 -48 -136t-132 -50q-82 0 -125 44t-43 126z M635 1642q0 86 49.5 135t133.5 49q77 0 121 -44t44 -124q0 -86 -48 -136t-132 -50q-82 0 -125 44t-43 126z" />
<glyph unicode="&#x4f5;" horiz-adv-x="1114" d="M47 1051h385l-6 -330q-2 -131 98 -131q51 0 113 20l-10 441h385l-23 -707l17 -344h-379l18 307l-2 86h-18q-76 -74 -189 -117q-186 0 -280.5 85t-98.5 262zM152 1368q0 86 49 135t133 49q78 0 122 -44t44 -124q0 -86 -48.5 -136t-132.5 -50q-81 0 -124 44t-43 126z M547 1368q0 86 49 135t133 49q78 0 122 -44t44 -124q0 -86 -48 -136t-132 -50q-82 0 -125 44t-43 126z" />
<glyph unicode="&#x4f6;" horiz-adv-x="1017" d="M121 0l20 389l-20 936h817l20 -29l-24 -299l-297 13h-107l-14 -580l4 -98h209v-613l-297 -20l-51 301h-260z" />
<glyph unicode="&#x4f7;" horiz-adv-x="874" d="M104 0l19 307l-19 744h707l18 -25l-22 -276l-252 12h-74l-12 -418l2 -57h154v-545l-256 -18l-45 276h-220z" />
<glyph unicode="&#x4f8;" horiz-adv-x="1775" d="M94 0l23 387l-23 940h416l-12 -463h233q199 0 302.5 -95t103.5 -275q0 -152 -71 -262.5t-205 -171t-316 -60.5h-451zM487 428l7 -139l133 -10q37 18 60.5 61t23.5 98q0 66 -33 106t-86 38l-100 -4zM516 1642q0 86 49 135t133 49q78 0 122 -44t44 -124q0 -86 -48 -136 t-132 -50q-82 0 -125 44t-43 126zM911 1642q0 86 49.5 135t133.5 49q77 0 121 -44t44 -124q0 -86 -48 -136t-132 -50q-82 0 -125 44t-43 126zM1239 0l21 389l-21 936h418l-23 -895l17 -430h-412z" />
<glyph unicode="&#x4f9;" horiz-adv-x="1595" d="M82 0l20 305l-20 748h383l-10 -348h192q168 0 257 -76t89 -221q0 -186 -137 -297t-375 -111h-399zM426 1368q0 86 49 135t133 49q78 0 122 -44t44 -124q0 -86 -48 -136t-132 -50q-82 0 -125 44t-43 126zM444 342l5 -80l104 -8q20 16 33.5 44t13.5 58q0 41 -23.5 67 t-58.5 23l-72 -2zM821 1368q0 86 49.5 135t133.5 49q78 0 121.5 -44t43.5 -124q0 -86 -48 -136t-132 -50q-82 0 -125 44t-43 126zM1106 0l18 305l-18 746h387l-23 -707l17 -344h-381z" />
<glyph unicode="&#x2000;" horiz-adv-x="953" />
<glyph unicode="&#x2001;" horiz-adv-x="1906" />
<glyph unicode="&#x2002;" horiz-adv-x="953" />
<glyph unicode="&#x2003;" horiz-adv-x="1906" />
<glyph unicode="&#x2004;" horiz-adv-x="635" />
<glyph unicode="&#x2005;" horiz-adv-x="476" />
<glyph unicode="&#x2006;" horiz-adv-x="317" />
<glyph unicode="&#x2007;" horiz-adv-x="317" />
<glyph unicode="&#x2008;" horiz-adv-x="238" />
<glyph unicode="&#x2009;" horiz-adv-x="381" />
<glyph unicode="&#x200a;" horiz-adv-x="105" />
<glyph unicode="&#x2010;" horiz-adv-x="612" d="M51 373v245l479 78l29 -28l2 -246l-481 -78z" />
<glyph unicode="&#x2011;" horiz-adv-x="612" d="M51 373v245l479 78l29 -28l2 -246l-481 -78z" />
<glyph unicode="&#x2012;" horiz-adv-x="612" d="M51 373v245l479 78l29 -28l2 -246l-481 -78z" />
<glyph unicode="&#x2013;" horiz-adv-x="907" d="M-39 426l19 240h942l24 -27l-18 -240h-942z" />
<glyph unicode="&#x2014;" horiz-adv-x="1722" d="M-39 426l19 240h1757l24 -27l-18 -240h-1757z" />
<glyph unicode="&#x2018;" horiz-adv-x="518" d="M72 666q0 100 57 199.5t176 209.5l133 -86l6 -24q-80 -88 -79 -181q0 -61 19 -103t67 -77v-31q-135 -100 -256 -145q-64 43 -93.5 100.5t-29.5 137.5z" />
<glyph unicode="&#x2019;" horiz-adv-x="518" d="M70 901v31q135 100 256 145q63 -43 93 -100t30 -137q0 -100 -57.5 -199.5t-176.5 -210.5l-133 86l-6 25q80 90 80 180q0 61 -19.5 103t-66.5 77z" />
<glyph unicode="&#x201a;" horiz-adv-x="466" d="M-12 -154q59 51 86.5 105.5t27.5 118.5q0 86 -67 153l2 33q147 82 293 119q51 -47 74.5 -100.5t23.5 -116.5q0 -119 -76 -228.5t-235 -220.5l-125 109z" />
<glyph unicode="&#x201c;" horiz-adv-x="937" d="M72 666q0 100 57 199.5t176 209.5l133 -86l6 -24q-80 -88 -79 -181q0 -61 19 -103t67 -77v-31q-135 -100 -256 -145q-64 43 -93.5 100.5t-29.5 137.5zM492 666q0 100 57 199.5t176 209.5l133 -86l6 -24q-80 -88 -80 -181q0 -61 19.5 -103t66.5 -77v-31 q-135 -100 -256 -145q-63 43 -92.5 100.5t-29.5 137.5z" />
<glyph unicode="&#x201d;" horiz-adv-x="917" d="M70 901v31q135 100 256 145q63 -43 93 -100t30 -137q0 -100 -57.5 -199.5t-176.5 -210.5l-133 86l-6 25q80 90 80 180q0 61 -19.5 103t-66.5 77zM469 901v31q135 100 256 145q63 -43 93 -100t30 -137q0 -100 -57.5 -199.5t-176.5 -210.5l-133 86l-6 25q80 90 80 180 q0 61 -19.5 103t-66.5 77z" />
<glyph unicode="&#x201e;" horiz-adv-x="886" d="M-12 -154q59 51 86.5 105.5t27.5 118.5q0 86 -67 153l2 33q147 82 293 119q51 -47 74.5 -100.5t23.5 -116.5q0 -119 -76 -228.5t-235 -220.5l-125 109zM408 -154q59 51 86.5 105.5t27.5 118.5q0 86 -67 153l2 33q147 82 293 119q51 -47 74.5 -100.5t23.5 -116.5 q0 -119 -76 -228.5t-235 -220.5l-125 109z" />
<glyph unicode="&#x2026;" horiz-adv-x="1409" d="M33 176q0 98 56 155.5t153 57.5q90 0 140 -51t50 -143q0 -98 -55 -155.5t-152 -57.5q-94 0 -143 50t-49 144zM504 176q0 98 56 155.5t153 57.5q90 0 140 -51t50 -143q0 -98 -55 -155.5t-152 -57.5q-94 0 -143 50t-49 144zM975 176q0 98 56 155.5t153 57.5q90 0 140 -51 t50 -143q0 -98 -55 -155.5t-152 -57.5q-94 0 -143 50t-49 144z" />
<glyph unicode="&#x202f;" horiz-adv-x="381" />
<glyph unicode="&#x2039;" horiz-adv-x="532" d="M98 438v56l256 376l187 -96l8 -35l-164 -268l164 -266l-8 -35l-187 -96z" />
<glyph unicode="&#x203a;" horiz-adv-x="532" d="M-6 211l164 268l-164 266l8 35l186 97l256 -365v-55l-256 -377l-186 96z" />
<glyph unicode="&#x205f;" horiz-adv-x="476" />
<glyph unicode="&#x20ac;" horiz-adv-x="915" d="M-8 350l10 152h733l15 -19l-11 -149h-186q39 -51 123 -51q37 0 91 8t95 18l29 -18l-29 -293q-74 -16 -209 -16q-444 0 -526 352h-123zM-8 571l10 148h139q51 168 186.5 259t340.5 91q127 0 256 -35l-62 -295l-22 -16q-41 18 -93.5 30.5t-93.5 12.5q-78 0 -110 -47h192 l15 -14l-11 -154h-735z" />
<glyph unicode="&#x2122;" horiz-adv-x="1224" d="M41 1184l10 137h408l10 -12l-10 -140l-113 7l-4 -187l8 -162h-190l10 144l-4 205l-113 -7zM510 827l51 494h223l13 -70l26 -133h13l30 125l17 78h221l39 -494h-170l-2 150l-4 70h-11l-67 -179h-144l-51 179h-10l-6 -52l-6 -168h-162z" />
<glyph unicode="&#x25fc;" horiz-adv-x="1054" d="M0 0v1055h1055v-1055h-1055z" />
</font>
</defs>
</svg>
